%TF.GenerationSoftware,KiCad,Pcbnew,(7.0.0)*%
%TF.CreationDate,2023-11-18T20:53:13-06:00*%
%TF.ProjectId,LightLetter_W,4c696768-744c-4657-9474-65725f572e6b,rev?*%
%TF.SameCoordinates,PXda408f0PY8b5864b*%
%TF.FileFunction,Legend,Bot*%
%TF.FilePolarity,Positive*%
%FSLAX46Y46*%
G04 Gerber Fmt 4.6, Leading zero omitted, Abs format (unit mm)*
G04 Created by KiCad (PCBNEW (7.0.0)) date 2023-11-18 20:53:13*
%MOMM*%
%LPD*%
G01*
G04 APERTURE LIST*
%ADD10C,0.152400*%
%ADD11C,0.190500*%
%ADD12C,0.150000*%
%ADD13C,0.127000*%
%ADD14C,0.200000*%
%ADD15C,0.120000*%
G04 APERTURE END LIST*
D10*
X-38998677Y2896344D02*
X-38660010Y3380154D01*
X-38418105Y2896344D02*
X-38418105Y3912344D01*
X-38418105Y3912344D02*
X-38805153Y3912344D01*
X-38805153Y3912344D02*
X-38901915Y3863963D01*
X-38901915Y3863963D02*
X-38950296Y3815583D01*
X-38950296Y3815583D02*
X-38998677Y3718821D01*
X-38998677Y3718821D02*
X-38998677Y3573678D01*
X-38998677Y3573678D02*
X-38950296Y3476916D01*
X-38950296Y3476916D02*
X-38901915Y3428535D01*
X-38901915Y3428535D02*
X-38805153Y3380154D01*
X-38805153Y3380154D02*
X-38418105Y3380154D01*
X-39434105Y3428535D02*
X-39772772Y3428535D01*
X-39917915Y2896344D02*
X-39434105Y2896344D01*
X-39434105Y2896344D02*
X-39434105Y3912344D01*
X-39434105Y3912344D02*
X-39917915Y3912344D01*
X-40208200Y3912344D02*
X-40546867Y2896344D01*
X-40546867Y2896344D02*
X-40885534Y3912344D01*
X-42365991Y2896344D02*
X-41785419Y2896344D01*
X-42075705Y2896344D02*
X-42075705Y3912344D01*
X-42075705Y3912344D02*
X-41978943Y3767202D01*
X-41978943Y3767202D02*
X-41882181Y3670440D01*
X-41882181Y3670440D02*
X-41785419Y3622059D01*
X-42801419Y2993106D02*
X-42849800Y2944725D01*
X-42849800Y2944725D02*
X-42801419Y2896344D01*
X-42801419Y2896344D02*
X-42753038Y2944725D01*
X-42753038Y2944725D02*
X-42801419Y2993106D01*
X-42801419Y2993106D02*
X-42801419Y2896344D01*
X-43478753Y3912344D02*
X-43575515Y3912344D01*
X-43575515Y3912344D02*
X-43672277Y3863963D01*
X-43672277Y3863963D02*
X-43720658Y3815583D01*
X-43720658Y3815583D02*
X-43769039Y3718821D01*
X-43769039Y3718821D02*
X-43817420Y3525297D01*
X-43817420Y3525297D02*
X-43817420Y3283392D01*
X-43817420Y3283392D02*
X-43769039Y3089868D01*
X-43769039Y3089868D02*
X-43720658Y2993106D01*
X-43720658Y2993106D02*
X-43672277Y2944725D01*
X-43672277Y2944725D02*
X-43575515Y2896344D01*
X-43575515Y2896344D02*
X-43478753Y2896344D01*
X-43478753Y2896344D02*
X-43381991Y2944725D01*
X-43381991Y2944725D02*
X-43333610Y2993106D01*
X-43333610Y2993106D02*
X-43285229Y3089868D01*
X-43285229Y3089868D02*
X-43236848Y3283392D01*
X-43236848Y3283392D02*
X-43236848Y3525297D01*
X-43236848Y3525297D02*
X-43285229Y3718821D01*
X-43285229Y3718821D02*
X-43333610Y3815583D01*
X-43333610Y3815583D02*
X-43381991Y3863963D01*
X-43381991Y3863963D02*
X-43478753Y3912344D01*
X-38950296Y1250424D02*
X-38369724Y1250424D01*
X-38660010Y1250424D02*
X-38660010Y2266424D01*
X-38660010Y2266424D02*
X-38563248Y2121282D01*
X-38563248Y2121282D02*
X-38466486Y2024520D01*
X-38466486Y2024520D02*
X-38369724Y1976139D01*
X-39917915Y1250424D02*
X-39337343Y1250424D01*
X-39627629Y1250424D02*
X-39627629Y2266424D01*
X-39627629Y2266424D02*
X-39530867Y2121282D01*
X-39530867Y2121282D02*
X-39434105Y2024520D01*
X-39434105Y2024520D02*
X-39337343Y1976139D01*
X-41079058Y2314805D02*
X-40208200Y1008520D01*
X-41949915Y1250424D02*
X-41369343Y1250424D01*
X-41659629Y1250424D02*
X-41659629Y2266424D01*
X-41659629Y2266424D02*
X-41562867Y2121282D01*
X-41562867Y2121282D02*
X-41466105Y2024520D01*
X-41466105Y2024520D02*
X-41369343Y1976139D01*
X-42530486Y1830996D02*
X-42433724Y1879377D01*
X-42433724Y1879377D02*
X-42385343Y1927758D01*
X-42385343Y1927758D02*
X-42336962Y2024520D01*
X-42336962Y2024520D02*
X-42336962Y2072901D01*
X-42336962Y2072901D02*
X-42385343Y2169663D01*
X-42385343Y2169663D02*
X-42433724Y2218043D01*
X-42433724Y2218043D02*
X-42530486Y2266424D01*
X-42530486Y2266424D02*
X-42724010Y2266424D01*
X-42724010Y2266424D02*
X-42820772Y2218043D01*
X-42820772Y2218043D02*
X-42869153Y2169663D01*
X-42869153Y2169663D02*
X-42917534Y2072901D01*
X-42917534Y2072901D02*
X-42917534Y2024520D01*
X-42917534Y2024520D02*
X-42869153Y1927758D01*
X-42869153Y1927758D02*
X-42820772Y1879377D01*
X-42820772Y1879377D02*
X-42724010Y1830996D01*
X-42724010Y1830996D02*
X-42530486Y1830996D01*
X-42530486Y1830996D02*
X-42433724Y1782615D01*
X-42433724Y1782615D02*
X-42385343Y1734234D01*
X-42385343Y1734234D02*
X-42336962Y1637472D01*
X-42336962Y1637472D02*
X-42336962Y1443948D01*
X-42336962Y1443948D02*
X-42385343Y1347186D01*
X-42385343Y1347186D02*
X-42433724Y1298805D01*
X-42433724Y1298805D02*
X-42530486Y1250424D01*
X-42530486Y1250424D02*
X-42724010Y1250424D01*
X-42724010Y1250424D02*
X-42820772Y1298805D01*
X-42820772Y1298805D02*
X-42869153Y1347186D01*
X-42869153Y1347186D02*
X-42917534Y1443948D01*
X-42917534Y1443948D02*
X-42917534Y1637472D01*
X-42917534Y1637472D02*
X-42869153Y1734234D01*
X-42869153Y1734234D02*
X-42820772Y1782615D01*
X-42820772Y1782615D02*
X-42724010Y1830996D01*
X-44078677Y2314805D02*
X-43207819Y1008520D01*
X-44368962Y2169663D02*
X-44417343Y2218043D01*
X-44417343Y2218043D02*
X-44514105Y2266424D01*
X-44514105Y2266424D02*
X-44756010Y2266424D01*
X-44756010Y2266424D02*
X-44852772Y2218043D01*
X-44852772Y2218043D02*
X-44901153Y2169663D01*
X-44901153Y2169663D02*
X-44949534Y2072901D01*
X-44949534Y2072901D02*
X-44949534Y1976139D01*
X-44949534Y1976139D02*
X-44901153Y1830996D01*
X-44901153Y1830996D02*
X-44320581Y1250424D01*
X-44320581Y1250424D02*
X-44949534Y1250424D01*
X-45288200Y2266424D02*
X-45917153Y2266424D01*
X-45917153Y2266424D02*
X-45578486Y1879377D01*
X-45578486Y1879377D02*
X-45723629Y1879377D01*
X-45723629Y1879377D02*
X-45820391Y1830996D01*
X-45820391Y1830996D02*
X-45868772Y1782615D01*
X-45868772Y1782615D02*
X-45917153Y1685853D01*
X-45917153Y1685853D02*
X-45917153Y1443948D01*
X-45917153Y1443948D02*
X-45868772Y1347186D01*
X-45868772Y1347186D02*
X-45820391Y1298805D01*
X-45820391Y1298805D02*
X-45723629Y1250424D01*
X-45723629Y1250424D02*
X-45433343Y1250424D01*
X-45433343Y1250424D02*
X-45336581Y1298805D01*
X-45336581Y1298805D02*
X-45288200Y1347186D01*
D11*
X-129287349Y18037217D02*
X-127793944Y18341054D01*
X-127793944Y18341054D02*
X-127866286Y18696626D01*
X-127866286Y18696626D02*
X-127980806Y18895501D01*
X-127980806Y18895501D02*
X-128151972Y19008794D01*
X-128151972Y19008794D02*
X-128308669Y19050971D01*
X-128308669Y19050971D02*
X-128607596Y19064212D01*
X-128607596Y19064212D02*
X-128820939Y19020807D01*
X-128820939Y19020807D02*
X-129090929Y18891819D01*
X-129090929Y18891819D02*
X-129218690Y18791767D01*
X-129218690Y18791767D02*
X-129331982Y18620602D01*
X-129331982Y18620602D02*
X-129359691Y18392790D01*
X-129359691Y18392790D02*
X-129287349Y18037217D01*
X-129635819Y20114007D02*
X-129677996Y19957309D01*
X-129677996Y19957309D02*
X-129620123Y19672851D01*
X-129620123Y19672851D02*
X-129520071Y19545091D01*
X-129520071Y19545091D02*
X-129363374Y19502913D01*
X-129363374Y19502913D02*
X-128794458Y19618660D01*
X-128794458Y19618660D02*
X-128666697Y19718711D01*
X-128666697Y19718711D02*
X-128624519Y19875409D01*
X-128624519Y19875409D02*
X-128682393Y20159867D01*
X-128682393Y20159867D02*
X-128782444Y20287628D01*
X-128782444Y20287628D02*
X-128939142Y20329805D01*
X-128939142Y20329805D02*
X-129081371Y20300869D01*
X-129081371Y20300869D02*
X-129078916Y19560786D01*
X-129766034Y20754038D02*
X-129866086Y20881799D01*
X-129866086Y20881799D02*
X-129923960Y21166257D01*
X-129923960Y21166257D02*
X-129881782Y21322954D01*
X-129881782Y21322954D02*
X-129754021Y21423006D01*
X-129754021Y21423006D02*
X-129682907Y21437474D01*
X-129682907Y21437474D02*
X-129526209Y21395296D01*
X-129526209Y21395296D02*
X-129426158Y21267536D01*
X-129426158Y21267536D02*
X-129382753Y21054192D01*
X-129382753Y21054192D02*
X-129282701Y20926431D01*
X-129282701Y20926431D02*
X-129126004Y20884254D01*
X-129126004Y20884254D02*
X-129054889Y20898722D01*
X-129054889Y20898722D02*
X-128927128Y20998773D01*
X-128927128Y20998773D02*
X-128884951Y21155471D01*
X-128884951Y21155471D02*
X-128928356Y21368815D01*
X-128928356Y21368815D02*
X-129028407Y21496575D01*
X-130097580Y22019631D02*
X-129101977Y22222189D01*
X-128604175Y22323468D02*
X-128660821Y22237885D01*
X-128660821Y22237885D02*
X-128746404Y22294531D01*
X-128746404Y22294531D02*
X-128689758Y22380114D01*
X-128689758Y22380114D02*
X-128604175Y22323468D01*
X-128604175Y22323468D02*
X-128746404Y22294531D01*
X-129376877Y23573365D02*
X-130585824Y23327401D01*
X-130585824Y23327401D02*
X-130713585Y23227350D01*
X-130713585Y23227350D02*
X-130770231Y23141767D01*
X-130770231Y23141767D02*
X-130812408Y22985070D01*
X-130812408Y22985070D02*
X-130769003Y22771726D01*
X-130769003Y22771726D02*
X-130668952Y22643965D01*
X-130301366Y23385275D02*
X-130343543Y23228578D01*
X-130343543Y23228578D02*
X-130285670Y22944120D01*
X-130285670Y22944120D02*
X-130185618Y22816359D01*
X-130185618Y22816359D02*
X-130100035Y22759713D01*
X-130100035Y22759713D02*
X-129943338Y22717535D01*
X-129943338Y22717535D02*
X-129516651Y22804346D01*
X-129516651Y22804346D02*
X-129388890Y22904397D01*
X-129388890Y22904397D02*
X-129332244Y22989980D01*
X-129332244Y22989980D02*
X-129290066Y23146677D01*
X-129290066Y23146677D02*
X-129347940Y23431135D01*
X-129347940Y23431135D02*
X-129447991Y23558896D01*
X-129521561Y24284510D02*
X-130517164Y24081952D01*
X-129663790Y24255573D02*
X-129607144Y24341156D01*
X-129607144Y24341156D02*
X-129564966Y24497853D01*
X-129564966Y24497853D02*
X-129608371Y24711197D01*
X-129608371Y24711197D02*
X-129708423Y24838958D01*
X-129708423Y24838958D02*
X-129865120Y24881135D01*
X-129865120Y24881135D02*
X-130647380Y24721983D01*
X-130836697Y26016513D02*
X-130878875Y25859815D01*
X-130878875Y25859815D02*
X-130821001Y25575357D01*
X-130821001Y25575357D02*
X-130720950Y25447596D01*
X-130720950Y25447596D02*
X-130564252Y25405419D01*
X-130564252Y25405419D02*
X-129995336Y25521166D01*
X-129995336Y25521166D02*
X-129867575Y25621217D01*
X-129867575Y25621217D02*
X-129825398Y25777915D01*
X-129825398Y25777915D02*
X-129883271Y26062373D01*
X-129883271Y26062373D02*
X-129983323Y26190134D01*
X-129983323Y26190134D02*
X-130140020Y26232311D01*
X-130140020Y26232311D02*
X-130282249Y26203375D01*
X-130282249Y26203375D02*
X-130279794Y25463292D01*
X-131182712Y27353221D02*
X-129689306Y27657057D01*
X-131111597Y27367689D02*
X-131153775Y27210992D01*
X-131153775Y27210992D02*
X-131095901Y26926534D01*
X-131095901Y26926534D02*
X-130995850Y26798773D01*
X-130995850Y26798773D02*
X-130910267Y26742127D01*
X-130910267Y26742127D02*
X-130753569Y26699949D01*
X-130753569Y26699949D02*
X-130326882Y26786760D01*
X-130326882Y26786760D02*
X-130199121Y26886811D01*
X-130199121Y26886811D02*
X-130142475Y26972394D01*
X-130142475Y26972394D02*
X-130100298Y27129091D01*
X-130100298Y27129091D02*
X-130158171Y27413549D01*
X-130158171Y27413549D02*
X-130258223Y27541310D01*
X-130828717Y29617363D02*
X-130943237Y29816239D01*
X-130943237Y29816239D02*
X-131028819Y29872885D01*
X-131028819Y29872885D02*
X-131185517Y29915062D01*
X-131185517Y29915062D02*
X-131398861Y29871657D01*
X-131398861Y29871657D02*
X-131526621Y29771606D01*
X-131526621Y29771606D02*
X-131583267Y29686023D01*
X-131583267Y29686023D02*
X-131625445Y29529325D01*
X-131625445Y29529325D02*
X-131509698Y28960409D01*
X-131509698Y28960409D02*
X-130016292Y29264246D01*
X-130016292Y29264246D02*
X-130117571Y29762048D01*
X-130117571Y29762048D02*
X-130217623Y29889808D01*
X-130217623Y29889808D02*
X-130303206Y29946454D01*
X-130303206Y29946454D02*
X-130459903Y29988632D01*
X-130459903Y29988632D02*
X-130602132Y29959695D01*
X-130602132Y29959695D02*
X-130729893Y29859644D01*
X-130729893Y29859644D02*
X-130786539Y29774061D01*
X-130786539Y29774061D02*
X-130828717Y29617363D01*
X-130828717Y29617363D02*
X-130727438Y29119562D01*
X-130788994Y30514143D02*
X-131856940Y30667158D01*
X-130933678Y31225288D02*
X-131856940Y30667158D01*
X-131856940Y30667158D02*
X-132183576Y30452587D01*
X-132183576Y30452587D02*
X-132240222Y30367004D01*
X-132240222Y30367004D02*
X-132282399Y30210306D01*
X-131902800Y31620584D02*
X-131988383Y31677230D01*
X-131988383Y31677230D02*
X-132045029Y31591647D01*
X-132045029Y31591647D02*
X-131959446Y31535001D01*
X-131959446Y31535001D02*
X-131902800Y31620584D01*
X-131902800Y31620584D02*
X-132045029Y31591647D01*
X-131120540Y31779736D02*
X-131206123Y31836383D01*
X-131206123Y31836383D02*
X-131262769Y31750800D01*
X-131262769Y31750800D02*
X-131177186Y31694154D01*
X-131177186Y31694154D02*
X-131120540Y31779736D01*
X-131120540Y31779736D02*
X-131262769Y31750800D01*
X-132372015Y33198835D02*
X-130878610Y33502672D01*
X-130878610Y33502672D02*
X-130950952Y33858245D01*
X-130950952Y33858245D02*
X-131065472Y34057120D01*
X-131065472Y34057120D02*
X-131236638Y34170412D01*
X-131236638Y34170412D02*
X-131393335Y34212590D01*
X-131393335Y34212590D02*
X-131692262Y34225831D01*
X-131692262Y34225831D02*
X-131905605Y34182425D01*
X-131905605Y34182425D02*
X-132175595Y34053437D01*
X-132175595Y34053437D02*
X-132303356Y33953386D01*
X-132303356Y33953386D02*
X-132416648Y33782220D01*
X-132416648Y33782220D02*
X-132444357Y33554408D01*
X-132444357Y33554408D02*
X-132372015Y33198835D01*
X-131651312Y34752569D02*
X-132719257Y34905584D01*
X-131795996Y35463715D02*
X-132719257Y34905584D01*
X-132719257Y34905584D02*
X-133045893Y34691013D01*
X-133045893Y34691013D02*
X-133102539Y34605430D01*
X-133102539Y34605430D02*
X-133144717Y34448733D01*
X-132950752Y36043417D02*
X-132850701Y35915656D01*
X-132850701Y35915656D02*
X-132694003Y35873479D01*
X-132694003Y35873479D02*
X-131413941Y36133910D01*
X-133196715Y37252364D02*
X-132414455Y37411517D01*
X-132414455Y37411517D02*
X-132257758Y37369339D01*
X-132257758Y37369339D02*
X-132157706Y37241578D01*
X-132157706Y37241578D02*
X-132099833Y36957120D01*
X-132099833Y36957120D02*
X-132142010Y36800423D01*
X-133125601Y37266833D02*
X-133167778Y37110135D01*
X-133167778Y37110135D02*
X-133095436Y36754562D01*
X-133095436Y36754562D02*
X-132995385Y36626802D01*
X-132995385Y36626802D02*
X-132838687Y36584624D01*
X-132838687Y36584624D02*
X-132696458Y36613561D01*
X-132696458Y36613561D02*
X-132568698Y36713612D01*
X-132568698Y36713612D02*
X-132526520Y36870310D01*
X-132526520Y36870310D02*
X-132598862Y37225883D01*
X-132598862Y37225883D02*
X-132556684Y37382580D01*
X-132345796Y38166067D02*
X-133341399Y37963509D01*
X-132488025Y38137130D02*
X-132431379Y38222713D01*
X-132431379Y38222713D02*
X-132389201Y38379411D01*
X-132389201Y38379411D02*
X-132432606Y38592754D01*
X-132432606Y38592754D02*
X-132532658Y38720515D01*
X-132532658Y38720515D02*
X-132689355Y38762693D01*
X-132689355Y38762693D02*
X-133471615Y38603540D01*
X-132535463Y41282357D02*
X-132435412Y41154596D01*
X-132435412Y41154596D02*
X-132392006Y40941253D01*
X-132392006Y40941253D02*
X-132419716Y40713441D01*
X-132419716Y40713441D02*
X-132533008Y40542275D01*
X-132533008Y40542275D02*
X-132660769Y40442223D01*
X-132660769Y40442223D02*
X-132930758Y40313235D01*
X-132930758Y40313235D02*
X-133144102Y40269830D01*
X-133144102Y40269830D02*
X-133443028Y40283071D01*
X-133443028Y40283071D02*
X-133599726Y40325248D01*
X-133599726Y40325248D02*
X-133770892Y40438541D01*
X-133770892Y40438541D02*
X-133885412Y40637416D01*
X-133885412Y40637416D02*
X-133914348Y40779645D01*
X-133914348Y40779645D02*
X-133886639Y41007457D01*
X-133886639Y41007457D02*
X-133829993Y41093040D01*
X-133829993Y41093040D02*
X-133332191Y41194319D01*
X-133332191Y41194319D02*
X-133274318Y40909861D01*
X-133237050Y42546723D02*
X-134232654Y42344165D01*
X-133106834Y41906692D02*
X-133889094Y41747539D01*
X-133889094Y41747539D02*
X-134045792Y41789717D01*
X-134045792Y41789717D02*
X-134145843Y41917478D01*
X-134145843Y41917478D02*
X-134189248Y42130821D01*
X-134189248Y42130821D02*
X-134147071Y42287519D01*
X-134147071Y42287519D02*
X-134090425Y42373102D01*
X-133338329Y43044524D02*
X-133454076Y43613440D01*
X-132883932Y43359147D02*
X-134163994Y43098715D01*
X-134163994Y43098715D02*
X-134320692Y43140893D01*
X-134320692Y43140893D02*
X-134420743Y43268654D01*
X-134420743Y43268654D02*
X-134449680Y43410883D01*
X-134550959Y43908684D02*
X-133555355Y44111242D01*
X-133057553Y44212521D02*
X-133114200Y44126938D01*
X-133114200Y44126938D02*
X-133199783Y44183584D01*
X-133199783Y44183584D02*
X-133143136Y44269167D01*
X-133143136Y44269167D02*
X-133057553Y44212521D01*
X-133057553Y44212521D02*
X-133199783Y44183584D01*
X-134740276Y45203214D02*
X-134782453Y45046517D01*
X-134782453Y45046517D02*
X-134724580Y44762058D01*
X-134724580Y44762058D02*
X-134624528Y44634298D01*
X-134624528Y44634298D02*
X-134467831Y44592120D01*
X-134467831Y44592120D02*
X-133898914Y44707867D01*
X-133898914Y44707867D02*
X-133771154Y44807919D01*
X-133771154Y44807919D02*
X-133728976Y44964616D01*
X-133728976Y44964616D02*
X-133786850Y45249074D01*
X-133786850Y45249074D02*
X-133886901Y45376835D01*
X-133886901Y45376835D02*
X-134043599Y45419013D01*
X-134043599Y45419013D02*
X-134185828Y45390076D01*
X-134185828Y45390076D02*
X-134183373Y44649994D01*
X-134956074Y45899891D02*
X-133960471Y46102449D01*
X-134244929Y46044575D02*
X-134117168Y46144627D01*
X-134117168Y46144627D02*
X-134060522Y46230210D01*
X-134060522Y46230210D02*
X-134018344Y46386907D01*
X-134018344Y46386907D02*
X-134047281Y46529136D01*
X-135144164Y46824381D02*
X-134148560Y47026938D01*
X-134433018Y46969065D02*
X-134305258Y47069116D01*
X-134305258Y47069116D02*
X-134248612Y47154699D01*
X-134248612Y47154699D02*
X-134206434Y47311397D01*
X-134206434Y47311397D02*
X-134235371Y47453626D01*
X-135376886Y48332255D02*
X-135419064Y48175557D01*
X-135419064Y48175557D02*
X-135361190Y47891099D01*
X-135361190Y47891099D02*
X-135261139Y47763338D01*
X-135261139Y47763338D02*
X-135104441Y47721161D01*
X-135104441Y47721161D02*
X-134535525Y47836908D01*
X-134535525Y47836908D02*
X-134407764Y47936959D01*
X-134407764Y47936959D02*
X-134365587Y48093657D01*
X-134365587Y48093657D02*
X-134423460Y48378115D01*
X-134423460Y48378115D02*
X-134523512Y48505876D01*
X-134523512Y48505876D02*
X-134680209Y48548053D01*
X-134680209Y48548053D02*
X-134822438Y48519117D01*
X-134822438Y48519117D02*
X-134819983Y47779034D01*
X-134568145Y49089261D02*
X-134727297Y49871521D01*
X-134727297Y49871521D02*
X-135563748Y48886703D01*
X-135563748Y48886703D02*
X-135722901Y49668963D01*
X-136069177Y55375049D02*
X-135967898Y54877247D01*
X-136750158Y54718094D02*
X-135256753Y55021931D01*
X-135256753Y55021931D02*
X-135401437Y55733077D01*
X-137053995Y56211500D02*
X-136953943Y56083739D01*
X-136953943Y56083739D02*
X-136868361Y56027093D01*
X-136868361Y56027093D02*
X-136711663Y55984916D01*
X-136711663Y55984916D02*
X-136284976Y56071726D01*
X-136284976Y56071726D02*
X-136157215Y56171777D01*
X-136157215Y56171777D02*
X-136100569Y56257360D01*
X-136100569Y56257360D02*
X-136058391Y56414058D01*
X-136058391Y56414058D02*
X-136101797Y56627401D01*
X-136101797Y56627401D02*
X-136201848Y56755162D01*
X-136201848Y56755162D02*
X-136287431Y56811808D01*
X-136287431Y56811808D02*
X-136444128Y56853986D01*
X-136444128Y56853986D02*
X-136870816Y56767175D01*
X-136870816Y56767175D02*
X-136998576Y56667124D01*
X-136998576Y56667124D02*
X-137055222Y56581541D01*
X-137055222Y56581541D02*
X-137097400Y56424844D01*
X-137097400Y56424844D02*
X-137053995Y56211500D01*
X-137285489Y57349332D02*
X-136289886Y57551890D01*
X-136574344Y57494017D02*
X-136446583Y57594068D01*
X-136446583Y57594068D02*
X-136389937Y57679651D01*
X-136389937Y57679651D02*
X-136347760Y57836348D01*
X-136347760Y57836348D02*
X-136376696Y57978577D01*
X-137331350Y58302759D02*
X-137416933Y58359405D01*
X-137416933Y58359405D02*
X-137473579Y58273822D01*
X-137473579Y58273822D02*
X-137387996Y58217176D01*
X-137387996Y58217176D02*
X-137331350Y58302759D01*
X-137331350Y58302759D02*
X-137473579Y58273822D01*
X-136549090Y58461911D02*
X-136634673Y58518557D01*
X-136634673Y58518557D02*
X-136691319Y58432974D01*
X-136691319Y58432974D02*
X-136605736Y58376328D01*
X-136605736Y58376328D02*
X-136549090Y58461911D01*
X-136549090Y58461911D02*
X-136691319Y58432974D01*
X-136278223Y60042618D02*
X-137843970Y60094354D01*
X-137843970Y60094354D02*
X-136835126Y60595838D01*
X-136835126Y60595838D02*
X-137959718Y60663270D01*
X-137959718Y60663270D02*
X-136538655Y61322679D01*
X-138278023Y62227789D02*
X-137495763Y62386942D01*
X-137495763Y62386942D02*
X-137339065Y62344764D01*
X-137339065Y62344764D02*
X-137239014Y62217004D01*
X-137239014Y62217004D02*
X-137181140Y61932546D01*
X-137181140Y61932546D02*
X-137223318Y61775848D01*
X-138206908Y62242258D02*
X-138249086Y62085560D01*
X-138249086Y62085560D02*
X-138176744Y61729988D01*
X-138176744Y61729988D02*
X-138076692Y61602227D01*
X-138076692Y61602227D02*
X-137919995Y61560049D01*
X-137919995Y61560049D02*
X-137777766Y61588986D01*
X-137777766Y61588986D02*
X-137650005Y61689038D01*
X-137650005Y61689038D02*
X-137607828Y61845735D01*
X-137607828Y61845735D02*
X-137680170Y62201308D01*
X-137680170Y62201308D02*
X-137637992Y62358005D01*
X-138466112Y63152278D02*
X-138366061Y63024518D01*
X-138366061Y63024518D02*
X-138209363Y62982340D01*
X-138209363Y62982340D02*
X-136929302Y63242771D01*
X-137542851Y63710409D02*
X-137658598Y64279325D01*
X-137088454Y64025032D02*
X-138368516Y63764600D01*
X-138368516Y63764600D02*
X-138525213Y63806778D01*
X-138525213Y63806778D02*
X-138625265Y63934538D01*
X-138625265Y63934538D02*
X-138654202Y64076768D01*
X-138800113Y65157954D02*
X-138842291Y65001256D01*
X-138842291Y65001256D02*
X-138784417Y64716798D01*
X-138784417Y64716798D02*
X-138684366Y64589038D01*
X-138684366Y64589038D02*
X-138527668Y64546860D01*
X-138527668Y64546860D02*
X-137958752Y64662607D01*
X-137958752Y64662607D02*
X-137830992Y64762659D01*
X-137830992Y64762659D02*
X-137788814Y64919356D01*
X-137788814Y64919356D02*
X-137846687Y65203814D01*
X-137846687Y65203814D02*
X-137946739Y65331575D01*
X-137946739Y65331575D02*
X-138103436Y65373753D01*
X-138103436Y65373753D02*
X-138245665Y65344816D01*
X-138245665Y65344816D02*
X-138243210Y64604734D01*
X-139015912Y65854631D02*
X-138020309Y66057189D01*
X-138304767Y65999315D02*
X-138177006Y66099367D01*
X-138177006Y66099367D02*
X-138120360Y66184950D01*
X-138120360Y66184950D02*
X-138078182Y66341647D01*
X-138078182Y66341647D02*
X-138107119Y66483876D01*
X-137849493Y67765657D02*
X-138023114Y68619031D01*
X-139429709Y67888507D02*
X-137936304Y68192344D01*
X-139661203Y69026340D02*
X-139561152Y68898579D01*
X-139561152Y68898579D02*
X-139475569Y68841933D01*
X-139475569Y68841933D02*
X-139318872Y68799755D01*
X-139318872Y68799755D02*
X-138892184Y68886566D01*
X-138892184Y68886566D02*
X-138764424Y68986617D01*
X-138764424Y68986617D02*
X-138707778Y69072200D01*
X-138707778Y69072200D02*
X-138665600Y69228898D01*
X-138665600Y69228898D02*
X-138709005Y69442241D01*
X-138709005Y69442241D02*
X-138809057Y69570002D01*
X-138809057Y69570002D02*
X-138894640Y69626648D01*
X-138894640Y69626648D02*
X-139051337Y69668826D01*
X-139051337Y69668826D02*
X-139478024Y69582015D01*
X-139478024Y69582015D02*
X-139605785Y69481964D01*
X-139605785Y69481964D02*
X-139662431Y69396381D01*
X-139662431Y69396381D02*
X-139704609Y69239684D01*
X-139704609Y69239684D02*
X-139661203Y69026340D01*
X-139892698Y70164172D02*
X-138897095Y70366730D01*
X-139039324Y70337793D02*
X-138982678Y70423376D01*
X-138982678Y70423376D02*
X-138940500Y70580074D01*
X-138940500Y70580074D02*
X-138983905Y70793417D01*
X-138983905Y70793417D02*
X-139083956Y70921178D01*
X-139083956Y70921178D02*
X-139240654Y70963356D01*
X-139240654Y70963356D02*
X-140022914Y70804203D01*
X-139240654Y70963356D02*
X-139112893Y71063407D01*
X-139112893Y71063407D02*
X-139070716Y71220105D01*
X-139070716Y71220105D02*
X-139114121Y71433448D01*
X-139114121Y71433448D02*
X-139214172Y71561209D01*
X-139214172Y71561209D02*
X-139370870Y71603387D01*
X-139370870Y71603387D02*
X-140153130Y71444234D01*
X-140341219Y72368723D02*
X-140241168Y72240962D01*
X-140241168Y72240962D02*
X-140084470Y72198785D01*
X-140084470Y72198785D02*
X-138804409Y72459216D01*
X-140456966Y72937640D02*
X-139461363Y73140197D01*
X-138963561Y73241476D02*
X-139020207Y73155893D01*
X-139020207Y73155893D02*
X-139105790Y73212539D01*
X-139105790Y73212539D02*
X-139049144Y73298122D01*
X-139049144Y73298122D02*
X-138963561Y73241476D01*
X-138963561Y73241476D02*
X-139105790Y73212539D01*
X-139606047Y73851342D02*
X-140601650Y73648785D01*
X-139748276Y73822406D02*
X-139691630Y73907989D01*
X-139691630Y73907989D02*
X-139649452Y74064686D01*
X-139649452Y74064686D02*
X-139692857Y74278030D01*
X-139692857Y74278030D02*
X-139792909Y74405790D01*
X-139792909Y74405790D02*
X-139949606Y74447968D01*
X-139949606Y74447968D02*
X-140731866Y74288815D01*
X-140790967Y74943315D02*
X-140891019Y75071075D01*
X-140891019Y75071075D02*
X-140948892Y75355533D01*
X-140948892Y75355533D02*
X-140906715Y75512231D01*
X-140906715Y75512231D02*
X-140778954Y75612282D01*
X-140778954Y75612282D02*
X-140707840Y75626751D01*
X-140707840Y75626751D02*
X-140551142Y75584573D01*
X-140551142Y75584573D02*
X-140451091Y75456812D01*
X-140451091Y75456812D02*
X-140407685Y75243469D01*
X-140407685Y75243469D02*
X-140307634Y75115708D01*
X-140307634Y75115708D02*
X-140150937Y75073530D01*
X-140150937Y75073530D02*
X-140079822Y75087999D01*
X-140079822Y75087999D02*
X-139952061Y75188050D01*
X-139952061Y75188050D02*
X-139909884Y75344748D01*
X-139909884Y75344748D02*
X-139953289Y75558091D01*
X-139953289Y75558091D02*
X-140053340Y75685852D01*
X-141165919Y76422251D02*
X-141065867Y76294490D01*
X-141065867Y76294490D02*
X-140980284Y76237844D01*
X-140980284Y76237844D02*
X-140823587Y76195667D01*
X-140823587Y76195667D02*
X-140396900Y76282477D01*
X-140396900Y76282477D02*
X-140269139Y76382528D01*
X-140269139Y76382528D02*
X-140212493Y76468111D01*
X-140212493Y76468111D02*
X-140170315Y76624809D01*
X-140170315Y76624809D02*
X-140213720Y76838153D01*
X-140213720Y76838153D02*
X-140313772Y76965913D01*
X-140313772Y76965913D02*
X-140399355Y77022559D01*
X-140399355Y77022559D02*
X-140556052Y77064737D01*
X-140556052Y77064737D02*
X-140982739Y76977926D01*
X-140982739Y76977926D02*
X-141110500Y76877875D01*
X-141110500Y76877875D02*
X-141167146Y76792292D01*
X-141167146Y76792292D02*
X-141209324Y76635595D01*
X-141209324Y76635595D02*
X-141165919Y76422251D01*
X-140401810Y77762641D02*
X-141397413Y77560084D01*
X-140544039Y77733704D02*
X-140487393Y77819287D01*
X-140487393Y77819287D02*
X-140445215Y77975985D01*
X-140445215Y77975985D02*
X-140488620Y78189329D01*
X-140488620Y78189329D02*
X-140588672Y78317089D01*
X-140588672Y78317089D02*
X-140745369Y78359267D01*
X-140745369Y78359267D02*
X-141527629Y78200114D01*
D10*
X-119761000Y4509123D02*
X-119380000Y4636123D01*
X-119380000Y4255123D02*
X-119761000Y4509123D01*
X-119380000Y4636123D02*
X-119380000Y4255123D01*
X-119380000Y4255123D02*
X-119380000Y4636123D01*
X-121412000Y7938123D02*
X-119380000Y4255123D01*
X-126238000Y10935323D02*
X-121412000Y10935323D01*
X-121412000Y10935323D02*
X-121412000Y7938123D01*
X-121412000Y7938123D02*
X-126238000Y7938123D01*
X-126238000Y7938123D02*
X-126238000Y10935323D01*
%TO.C,Y1*%
X-117734131Y26827456D02*
X-117310798Y26827456D01*
X-118199798Y27123790D02*
X-117734131Y26827456D01*
X-117734131Y26827456D02*
X-118199798Y26531123D01*
X-117310798Y25769123D02*
X-117310798Y26277123D01*
X-117310798Y26023123D02*
X-118199798Y26023123D01*
X-118199798Y26023123D02*
X-118072798Y26107790D01*
X-118072798Y26107790D02*
X-117988131Y26192456D01*
X-117988131Y26192456D02*
X-117945798Y26277123D01*
D12*
%TO.C,SW2*%
X-97835200Y13589138D02*
X-98044691Y13565510D01*
X-98044691Y13565510D02*
X-98370740Y13634814D01*
X-98370740Y13634814D02*
X-98487299Y13727745D01*
X-98487299Y13727745D02*
X-98538648Y13806816D01*
X-98538648Y13806816D02*
X-98576136Y13951097D01*
X-98576136Y13951097D02*
X-98548415Y14081516D01*
X-98548415Y14081516D02*
X-98455483Y14198075D01*
X-98455483Y14198075D02*
X-98376413Y14249424D01*
X-98376413Y14249424D02*
X-98232132Y14286912D01*
X-98232132Y14286912D02*
X-97957432Y14296679D01*
X-97957432Y14296679D02*
X-97813152Y14334167D01*
X-97813152Y14334167D02*
X-97734081Y14385517D01*
X-97734081Y14385517D02*
X-97641150Y14502075D01*
X-97641150Y14502075D02*
X-97613428Y14632495D01*
X-97613428Y14632495D02*
X-97650916Y14776776D01*
X-97650916Y14776776D02*
X-97702265Y14855846D01*
X-97702265Y14855846D02*
X-97818824Y14948778D01*
X-97818824Y14948778D02*
X-98144873Y15018081D01*
X-98144873Y15018081D02*
X-98354364Y14994454D01*
X-98796971Y15156689D02*
X-99414097Y13856586D01*
X-99414097Y13856586D02*
X-99467025Y14890177D01*
X-99467025Y14890177D02*
X-99935776Y13967473D01*
X-99935776Y13967473D02*
X-99970749Y15406183D01*
X-100454939Y15372789D02*
X-100506288Y15451860D01*
X-100506288Y15451860D02*
X-100622847Y15544791D01*
X-100622847Y15544791D02*
X-100948896Y15614095D01*
X-100948896Y15614095D02*
X-101093177Y15576607D01*
X-101093177Y15576607D02*
X-101172247Y15525258D01*
X-101172247Y15525258D02*
X-101265179Y15408699D01*
X-101265179Y15408699D02*
X-101292900Y15278279D01*
X-101292900Y15278279D02*
X-101269273Y15068789D01*
X-101269273Y15068789D02*
X-100653084Y14119941D01*
X-100653084Y14119941D02*
X-101500812Y14300131D01*
%TO.C,U2*%
X-107312620Y9589028D02*
X-106503096Y9589028D01*
X-106503096Y9589028D02*
X-106407858Y9541409D01*
X-106407858Y9541409D02*
X-106360239Y9493790D01*
X-106360239Y9493790D02*
X-106312620Y9398552D01*
X-106312620Y9398552D02*
X-106312620Y9208076D01*
X-106312620Y9208076D02*
X-106360239Y9112838D01*
X-106360239Y9112838D02*
X-106407858Y9065219D01*
X-106407858Y9065219D02*
X-106503096Y9017600D01*
X-106503096Y9017600D02*
X-107312620Y9017600D01*
X-107217381Y8589028D02*
X-107265000Y8541409D01*
X-107265000Y8541409D02*
X-107312620Y8446171D01*
X-107312620Y8446171D02*
X-107312620Y8208076D01*
X-107312620Y8208076D02*
X-107265000Y8112838D01*
X-107265000Y8112838D02*
X-107217381Y8065219D01*
X-107217381Y8065219D02*
X-107122143Y8017600D01*
X-107122143Y8017600D02*
X-107026905Y8017600D01*
X-107026905Y8017600D02*
X-106884048Y8065219D01*
X-106884048Y8065219D02*
X-106312620Y8636647D01*
X-106312620Y8636647D02*
X-106312620Y8017600D01*
%TO.C,U1*%
X-98425096Y17968743D02*
X-98425096Y17159219D01*
X-98425096Y17159219D02*
X-98472715Y17063981D01*
X-98472715Y17063981D02*
X-98520334Y17016362D01*
X-98520334Y17016362D02*
X-98615572Y16968743D01*
X-98615572Y16968743D02*
X-98806048Y16968743D01*
X-98806048Y16968743D02*
X-98901286Y17016362D01*
X-98901286Y17016362D02*
X-98948905Y17063981D01*
X-98948905Y17063981D02*
X-98996524Y17159219D01*
X-98996524Y17159219D02*
X-98996524Y17968743D01*
X-99996524Y16968743D02*
X-99425096Y16968743D01*
X-99710810Y16968743D02*
X-99710810Y17968743D01*
X-99710810Y17968743D02*
X-99615572Y17825885D01*
X-99615572Y17825885D02*
X-99520334Y17730647D01*
X-99520334Y17730647D02*
X-99425096Y17683028D01*
%TO.C,SW1*%
X-95059668Y48117362D02*
X-95202525Y48069743D01*
X-95202525Y48069743D02*
X-95440620Y48069743D01*
X-95440620Y48069743D02*
X-95535858Y48117362D01*
X-95535858Y48117362D02*
X-95583477Y48164981D01*
X-95583477Y48164981D02*
X-95631096Y48260219D01*
X-95631096Y48260219D02*
X-95631096Y48355457D01*
X-95631096Y48355457D02*
X-95583477Y48450695D01*
X-95583477Y48450695D02*
X-95535858Y48498314D01*
X-95535858Y48498314D02*
X-95440620Y48545933D01*
X-95440620Y48545933D02*
X-95250144Y48593552D01*
X-95250144Y48593552D02*
X-95154906Y48641171D01*
X-95154906Y48641171D02*
X-95107287Y48688790D01*
X-95107287Y48688790D02*
X-95059668Y48784028D01*
X-95059668Y48784028D02*
X-95059668Y48879266D01*
X-95059668Y48879266D02*
X-95107287Y48974504D01*
X-95107287Y48974504D02*
X-95154906Y49022123D01*
X-95154906Y49022123D02*
X-95250144Y49069743D01*
X-95250144Y49069743D02*
X-95488239Y49069743D01*
X-95488239Y49069743D02*
X-95631096Y49022123D01*
X-95964430Y49069743D02*
X-96202525Y48069743D01*
X-96202525Y48069743D02*
X-96393001Y48784028D01*
X-96393001Y48784028D02*
X-96583477Y48069743D01*
X-96583477Y48069743D02*
X-96821572Y49069743D01*
X-97726334Y48069743D02*
X-97154906Y48069743D01*
X-97440620Y48069743D02*
X-97440620Y49069743D01*
X-97440620Y49069743D02*
X-97345382Y48926885D01*
X-97345382Y48926885D02*
X-97250144Y48831647D01*
X-97250144Y48831647D02*
X-97154906Y48784028D01*
%TO.C,R9*%
X-131364620Y90083790D02*
X-131840810Y90417123D01*
X-131364620Y90655218D02*
X-132364620Y90655218D01*
X-132364620Y90655218D02*
X-132364620Y90274266D01*
X-132364620Y90274266D02*
X-132317000Y90179028D01*
X-132317000Y90179028D02*
X-132269381Y90131409D01*
X-132269381Y90131409D02*
X-132174143Y90083790D01*
X-132174143Y90083790D02*
X-132031286Y90083790D01*
X-132031286Y90083790D02*
X-131936048Y90131409D01*
X-131936048Y90131409D02*
X-131888429Y90179028D01*
X-131888429Y90179028D02*
X-131840810Y90274266D01*
X-131840810Y90274266D02*
X-131840810Y90655218D01*
X-131364620Y89607599D02*
X-131364620Y89417123D01*
X-131364620Y89417123D02*
X-131412239Y89321885D01*
X-131412239Y89321885D02*
X-131459858Y89274266D01*
X-131459858Y89274266D02*
X-131602715Y89179028D01*
X-131602715Y89179028D02*
X-131793191Y89131409D01*
X-131793191Y89131409D02*
X-132174143Y89131409D01*
X-132174143Y89131409D02*
X-132269381Y89179028D01*
X-132269381Y89179028D02*
X-132317000Y89226647D01*
X-132317000Y89226647D02*
X-132364620Y89321885D01*
X-132364620Y89321885D02*
X-132364620Y89512361D01*
X-132364620Y89512361D02*
X-132317000Y89607599D01*
X-132317000Y89607599D02*
X-132269381Y89655218D01*
X-132269381Y89655218D02*
X-132174143Y89702837D01*
X-132174143Y89702837D02*
X-131936048Y89702837D01*
X-131936048Y89702837D02*
X-131840810Y89655218D01*
X-131840810Y89655218D02*
X-131793191Y89607599D01*
X-131793191Y89607599D02*
X-131745572Y89512361D01*
X-131745572Y89512361D02*
X-131745572Y89321885D01*
X-131745572Y89321885D02*
X-131793191Y89226647D01*
X-131793191Y89226647D02*
X-131840810Y89179028D01*
X-131840810Y89179028D02*
X-131936048Y89131409D01*
%TO.C,R8*%
X-49134734Y13158743D02*
X-48801401Y13634933D01*
X-48563306Y13158743D02*
X-48563306Y14158743D01*
X-48563306Y14158743D02*
X-48944258Y14158743D01*
X-48944258Y14158743D02*
X-49039496Y14111123D01*
X-49039496Y14111123D02*
X-49087115Y14063504D01*
X-49087115Y14063504D02*
X-49134734Y13968266D01*
X-49134734Y13968266D02*
X-49134734Y13825409D01*
X-49134734Y13825409D02*
X-49087115Y13730171D01*
X-49087115Y13730171D02*
X-49039496Y13682552D01*
X-49039496Y13682552D02*
X-48944258Y13634933D01*
X-48944258Y13634933D02*
X-48563306Y13634933D01*
X-49706163Y13730171D02*
X-49610925Y13777790D01*
X-49610925Y13777790D02*
X-49563306Y13825409D01*
X-49563306Y13825409D02*
X-49515687Y13920647D01*
X-49515687Y13920647D02*
X-49515687Y13968266D01*
X-49515687Y13968266D02*
X-49563306Y14063504D01*
X-49563306Y14063504D02*
X-49610925Y14111123D01*
X-49610925Y14111123D02*
X-49706163Y14158743D01*
X-49706163Y14158743D02*
X-49896639Y14158743D01*
X-49896639Y14158743D02*
X-49991877Y14111123D01*
X-49991877Y14111123D02*
X-50039496Y14063504D01*
X-50039496Y14063504D02*
X-50087115Y13968266D01*
X-50087115Y13968266D02*
X-50087115Y13920647D01*
X-50087115Y13920647D02*
X-50039496Y13825409D01*
X-50039496Y13825409D02*
X-49991877Y13777790D01*
X-49991877Y13777790D02*
X-49896639Y13730171D01*
X-49896639Y13730171D02*
X-49706163Y13730171D01*
X-49706163Y13730171D02*
X-49610925Y13682552D01*
X-49610925Y13682552D02*
X-49563306Y13634933D01*
X-49563306Y13634933D02*
X-49515687Y13539695D01*
X-49515687Y13539695D02*
X-49515687Y13349219D01*
X-49515687Y13349219D02*
X-49563306Y13253981D01*
X-49563306Y13253981D02*
X-49610925Y13206362D01*
X-49610925Y13206362D02*
X-49706163Y13158743D01*
X-49706163Y13158743D02*
X-49896639Y13158743D01*
X-49896639Y13158743D02*
X-49991877Y13206362D01*
X-49991877Y13206362D02*
X-50039496Y13253981D01*
X-50039496Y13253981D02*
X-50087115Y13349219D01*
X-50087115Y13349219D02*
X-50087115Y13539695D01*
X-50087115Y13539695D02*
X-50039496Y13634933D01*
X-50039496Y13634933D02*
X-49991877Y13682552D01*
X-49991877Y13682552D02*
X-49896639Y13730171D01*
%TO.C,R7*%
X-53605134Y2897143D02*
X-53271801Y3373333D01*
X-53033706Y2897143D02*
X-53033706Y3897143D01*
X-53033706Y3897143D02*
X-53414658Y3897143D01*
X-53414658Y3897143D02*
X-53509896Y3849523D01*
X-53509896Y3849523D02*
X-53557515Y3801904D01*
X-53557515Y3801904D02*
X-53605134Y3706666D01*
X-53605134Y3706666D02*
X-53605134Y3563809D01*
X-53605134Y3563809D02*
X-53557515Y3468571D01*
X-53557515Y3468571D02*
X-53509896Y3420952D01*
X-53509896Y3420952D02*
X-53414658Y3373333D01*
X-53414658Y3373333D02*
X-53033706Y3373333D01*
X-53938468Y3897143D02*
X-54605134Y3897143D01*
X-54605134Y3897143D02*
X-54176563Y2897143D01*
%TO.C,R6*%
X-122388334Y9628143D02*
X-122055001Y10104333D01*
X-121816906Y9628143D02*
X-121816906Y10628143D01*
X-121816906Y10628143D02*
X-122197858Y10628143D01*
X-122197858Y10628143D02*
X-122293096Y10580523D01*
X-122293096Y10580523D02*
X-122340715Y10532904D01*
X-122340715Y10532904D02*
X-122388334Y10437666D01*
X-122388334Y10437666D02*
X-122388334Y10294809D01*
X-122388334Y10294809D02*
X-122340715Y10199571D01*
X-122340715Y10199571D02*
X-122293096Y10151952D01*
X-122293096Y10151952D02*
X-122197858Y10104333D01*
X-122197858Y10104333D02*
X-121816906Y10104333D01*
X-123245477Y10628143D02*
X-123055001Y10628143D01*
X-123055001Y10628143D02*
X-122959763Y10580523D01*
X-122959763Y10580523D02*
X-122912144Y10532904D01*
X-122912144Y10532904D02*
X-122816906Y10390047D01*
X-122816906Y10390047D02*
X-122769287Y10199571D01*
X-122769287Y10199571D02*
X-122769287Y9818619D01*
X-122769287Y9818619D02*
X-122816906Y9723381D01*
X-122816906Y9723381D02*
X-122864525Y9675762D01*
X-122864525Y9675762D02*
X-122959763Y9628143D01*
X-122959763Y9628143D02*
X-123150239Y9628143D01*
X-123150239Y9628143D02*
X-123245477Y9675762D01*
X-123245477Y9675762D02*
X-123293096Y9723381D01*
X-123293096Y9723381D02*
X-123340715Y9818619D01*
X-123340715Y9818619D02*
X-123340715Y10056714D01*
X-123340715Y10056714D02*
X-123293096Y10151952D01*
X-123293096Y10151952D02*
X-123245477Y10199571D01*
X-123245477Y10199571D02*
X-123150239Y10247190D01*
X-123150239Y10247190D02*
X-122959763Y10247190D01*
X-122959763Y10247190D02*
X-122864525Y10199571D01*
X-122864525Y10199571D02*
X-122816906Y10151952D01*
X-122816906Y10151952D02*
X-122769287Y10056714D01*
%TO.C,R5*%
X-122462734Y8110343D02*
X-122129401Y8586533D01*
X-121891306Y8110343D02*
X-121891306Y9110343D01*
X-121891306Y9110343D02*
X-122272258Y9110343D01*
X-122272258Y9110343D02*
X-122367496Y9062723D01*
X-122367496Y9062723D02*
X-122415115Y9015104D01*
X-122415115Y9015104D02*
X-122462734Y8919866D01*
X-122462734Y8919866D02*
X-122462734Y8777009D01*
X-122462734Y8777009D02*
X-122415115Y8681771D01*
X-122415115Y8681771D02*
X-122367496Y8634152D01*
X-122367496Y8634152D02*
X-122272258Y8586533D01*
X-122272258Y8586533D02*
X-121891306Y8586533D01*
X-123367496Y9110343D02*
X-122891306Y9110343D01*
X-122891306Y9110343D02*
X-122843687Y8634152D01*
X-122843687Y8634152D02*
X-122891306Y8681771D01*
X-122891306Y8681771D02*
X-122986544Y8729390D01*
X-122986544Y8729390D02*
X-123224639Y8729390D01*
X-123224639Y8729390D02*
X-123319877Y8681771D01*
X-123319877Y8681771D02*
X-123367496Y8634152D01*
X-123367496Y8634152D02*
X-123415115Y8538914D01*
X-123415115Y8538914D02*
X-123415115Y8300819D01*
X-123415115Y8300819D02*
X-123367496Y8205581D01*
X-123367496Y8205581D02*
X-123319877Y8157962D01*
X-123319877Y8157962D02*
X-123224639Y8110343D01*
X-123224639Y8110343D02*
X-122986544Y8110343D01*
X-122986544Y8110343D02*
X-122891306Y8157962D01*
X-122891306Y8157962D02*
X-122843687Y8205581D01*
%TO.C,R4*%
X-99020334Y27001743D02*
X-98687001Y27477933D01*
X-98448906Y27001743D02*
X-98448906Y28001743D01*
X-98448906Y28001743D02*
X-98829858Y28001743D01*
X-98829858Y28001743D02*
X-98925096Y27954123D01*
X-98925096Y27954123D02*
X-98972715Y27906504D01*
X-98972715Y27906504D02*
X-99020334Y27811266D01*
X-99020334Y27811266D02*
X-99020334Y27668409D01*
X-99020334Y27668409D02*
X-98972715Y27573171D01*
X-98972715Y27573171D02*
X-98925096Y27525552D01*
X-98925096Y27525552D02*
X-98829858Y27477933D01*
X-98829858Y27477933D02*
X-98448906Y27477933D01*
X-99877477Y27668409D02*
X-99877477Y27001743D01*
X-99639382Y28049362D02*
X-99401287Y27335076D01*
X-99401287Y27335076D02*
X-100020334Y27335076D01*
%TO.C,R3*%
X-110069334Y16587743D02*
X-109736001Y17063933D01*
X-109497906Y16587743D02*
X-109497906Y17587743D01*
X-109497906Y17587743D02*
X-109878858Y17587743D01*
X-109878858Y17587743D02*
X-109974096Y17540123D01*
X-109974096Y17540123D02*
X-110021715Y17492504D01*
X-110021715Y17492504D02*
X-110069334Y17397266D01*
X-110069334Y17397266D02*
X-110069334Y17254409D01*
X-110069334Y17254409D02*
X-110021715Y17159171D01*
X-110021715Y17159171D02*
X-109974096Y17111552D01*
X-109974096Y17111552D02*
X-109878858Y17063933D01*
X-109878858Y17063933D02*
X-109497906Y17063933D01*
X-110402668Y17587743D02*
X-111021715Y17587743D01*
X-111021715Y17587743D02*
X-110688382Y17206790D01*
X-110688382Y17206790D02*
X-110831239Y17206790D01*
X-110831239Y17206790D02*
X-110926477Y17159171D01*
X-110926477Y17159171D02*
X-110974096Y17111552D01*
X-110974096Y17111552D02*
X-111021715Y17016314D01*
X-111021715Y17016314D02*
X-111021715Y16778219D01*
X-111021715Y16778219D02*
X-110974096Y16682981D01*
X-110974096Y16682981D02*
X-110926477Y16635362D01*
X-110926477Y16635362D02*
X-110831239Y16587743D01*
X-110831239Y16587743D02*
X-110545525Y16587743D01*
X-110545525Y16587743D02*
X-110450287Y16635362D01*
X-110450287Y16635362D02*
X-110402668Y16682981D01*
%TO.C,R2*%
X-110069334Y15190743D02*
X-109736001Y15666933D01*
X-109497906Y15190743D02*
X-109497906Y16190743D01*
X-109497906Y16190743D02*
X-109878858Y16190743D01*
X-109878858Y16190743D02*
X-109974096Y16143123D01*
X-109974096Y16143123D02*
X-110021715Y16095504D01*
X-110021715Y16095504D02*
X-110069334Y16000266D01*
X-110069334Y16000266D02*
X-110069334Y15857409D01*
X-110069334Y15857409D02*
X-110021715Y15762171D01*
X-110021715Y15762171D02*
X-109974096Y15714552D01*
X-109974096Y15714552D02*
X-109878858Y15666933D01*
X-109878858Y15666933D02*
X-109497906Y15666933D01*
X-110450287Y16095504D02*
X-110497906Y16143123D01*
X-110497906Y16143123D02*
X-110593144Y16190743D01*
X-110593144Y16190743D02*
X-110831239Y16190743D01*
X-110831239Y16190743D02*
X-110926477Y16143123D01*
X-110926477Y16143123D02*
X-110974096Y16095504D01*
X-110974096Y16095504D02*
X-111021715Y16000266D01*
X-111021715Y16000266D02*
X-111021715Y15905028D01*
X-111021715Y15905028D02*
X-110974096Y15762171D01*
X-110974096Y15762171D02*
X-110402668Y15190743D01*
X-110402668Y15190743D02*
X-111021715Y15190743D01*
%TO.C,R1*%
X-102629620Y43664790D02*
X-103105810Y43998123D01*
X-102629620Y44236218D02*
X-103629620Y44236218D01*
X-103629620Y44236218D02*
X-103629620Y43855266D01*
X-103629620Y43855266D02*
X-103582000Y43760028D01*
X-103582000Y43760028D02*
X-103534381Y43712409D01*
X-103534381Y43712409D02*
X-103439143Y43664790D01*
X-103439143Y43664790D02*
X-103296286Y43664790D01*
X-103296286Y43664790D02*
X-103201048Y43712409D01*
X-103201048Y43712409D02*
X-103153429Y43760028D01*
X-103153429Y43760028D02*
X-103105810Y43855266D01*
X-103105810Y43855266D02*
X-103105810Y44236218D01*
X-102629620Y42712409D02*
X-102629620Y43283837D01*
X-102629620Y42998123D02*
X-103629620Y42998123D01*
X-103629620Y42998123D02*
X-103486762Y43093361D01*
X-103486762Y43093361D02*
X-103391524Y43188599D01*
X-103391524Y43188599D02*
X-103343905Y43283837D01*
%TO.C,J3*%
X-47418667Y10475743D02*
X-47418667Y9761457D01*
X-47418667Y9761457D02*
X-47371048Y9618600D01*
X-47371048Y9618600D02*
X-47275810Y9523362D01*
X-47275810Y9523362D02*
X-47132953Y9475743D01*
X-47132953Y9475743D02*
X-47037715Y9475743D01*
X-47799620Y10475743D02*
X-48418667Y10475743D01*
X-48418667Y10475743D02*
X-48085334Y10094790D01*
X-48085334Y10094790D02*
X-48228191Y10094790D01*
X-48228191Y10094790D02*
X-48323429Y10047171D01*
X-48323429Y10047171D02*
X-48371048Y9999552D01*
X-48371048Y9999552D02*
X-48418667Y9904314D01*
X-48418667Y9904314D02*
X-48418667Y9666219D01*
X-48418667Y9666219D02*
X-48371048Y9570981D01*
X-48371048Y9570981D02*
X-48323429Y9523362D01*
X-48323429Y9523362D02*
X-48228191Y9475743D01*
X-48228191Y9475743D02*
X-47942477Y9475743D01*
X-47942477Y9475743D02*
X-47847239Y9523362D01*
X-47847239Y9523362D02*
X-47799620Y9570981D01*
%TO.C,J2*%
X-101520667Y36681743D02*
X-101520667Y35967457D01*
X-101520667Y35967457D02*
X-101473048Y35824600D01*
X-101473048Y35824600D02*
X-101377810Y35729362D01*
X-101377810Y35729362D02*
X-101234953Y35681743D01*
X-101234953Y35681743D02*
X-101139715Y35681743D01*
X-101949239Y36586504D02*
X-101996858Y36634123D01*
X-101996858Y36634123D02*
X-102092096Y36681743D01*
X-102092096Y36681743D02*
X-102330191Y36681743D01*
X-102330191Y36681743D02*
X-102425429Y36634123D01*
X-102425429Y36634123D02*
X-102473048Y36586504D01*
X-102473048Y36586504D02*
X-102520667Y36491266D01*
X-102520667Y36491266D02*
X-102520667Y36396028D01*
X-102520667Y36396028D02*
X-102473048Y36253171D01*
X-102473048Y36253171D02*
X-101901620Y35681743D01*
X-101901620Y35681743D02*
X-102520667Y35681743D01*
%TO.C,FB1*%
X-95820429Y19566457D02*
X-95820429Y19899790D01*
X-95296620Y19899790D02*
X-96296620Y19899790D01*
X-96296620Y19899790D02*
X-96296620Y19423600D01*
X-95820429Y18709314D02*
X-95772810Y18566457D01*
X-95772810Y18566457D02*
X-95725191Y18518838D01*
X-95725191Y18518838D02*
X-95629953Y18471219D01*
X-95629953Y18471219D02*
X-95487096Y18471219D01*
X-95487096Y18471219D02*
X-95391858Y18518838D01*
X-95391858Y18518838D02*
X-95344239Y18566457D01*
X-95344239Y18566457D02*
X-95296620Y18661695D01*
X-95296620Y18661695D02*
X-95296620Y19042647D01*
X-95296620Y19042647D02*
X-96296620Y19042647D01*
X-96296620Y19042647D02*
X-96296620Y18709314D01*
X-96296620Y18709314D02*
X-96249000Y18614076D01*
X-96249000Y18614076D02*
X-96201381Y18566457D01*
X-96201381Y18566457D02*
X-96106143Y18518838D01*
X-96106143Y18518838D02*
X-96010905Y18518838D01*
X-96010905Y18518838D02*
X-95915667Y18566457D01*
X-95915667Y18566457D02*
X-95868048Y18614076D01*
X-95868048Y18614076D02*
X-95820429Y18709314D01*
X-95820429Y18709314D02*
X-95820429Y19042647D01*
X-95296620Y17518838D02*
X-95296620Y18090266D01*
X-95296620Y17804552D02*
X-96296620Y17804552D01*
X-96296620Y17804552D02*
X-96153762Y17899790D01*
X-96153762Y17899790D02*
X-96058524Y17995028D01*
X-96058524Y17995028D02*
X-96010905Y18090266D01*
%TO.C,F1*%
X-102409667Y1871552D02*
X-102076334Y1871552D01*
X-102076334Y1347743D02*
X-102076334Y2347743D01*
X-102076334Y2347743D02*
X-102552524Y2347743D01*
X-103457286Y1347743D02*
X-102885858Y1347743D01*
X-103171572Y1347743D02*
X-103171572Y2347743D01*
X-103171572Y2347743D02*
X-103076334Y2204885D01*
X-103076334Y2204885D02*
X-102981096Y2109647D01*
X-102981096Y2109647D02*
X-102885858Y2062028D01*
%TO.C,D3*%
X-124229906Y9729743D02*
X-124229906Y10729743D01*
X-124229906Y10729743D02*
X-124468001Y10729743D01*
X-124468001Y10729743D02*
X-124610858Y10682123D01*
X-124610858Y10682123D02*
X-124706096Y10586885D01*
X-124706096Y10586885D02*
X-124753715Y10491647D01*
X-124753715Y10491647D02*
X-124801334Y10301171D01*
X-124801334Y10301171D02*
X-124801334Y10158314D01*
X-124801334Y10158314D02*
X-124753715Y9967838D01*
X-124753715Y9967838D02*
X-124706096Y9872600D01*
X-124706096Y9872600D02*
X-124610858Y9777362D01*
X-124610858Y9777362D02*
X-124468001Y9729743D01*
X-124468001Y9729743D02*
X-124229906Y9729743D01*
X-125134668Y10729743D02*
X-125753715Y10729743D01*
X-125753715Y10729743D02*
X-125420382Y10348790D01*
X-125420382Y10348790D02*
X-125563239Y10348790D01*
X-125563239Y10348790D02*
X-125658477Y10301171D01*
X-125658477Y10301171D02*
X-125706096Y10253552D01*
X-125706096Y10253552D02*
X-125753715Y10158314D01*
X-125753715Y10158314D02*
X-125753715Y9920219D01*
X-125753715Y9920219D02*
X-125706096Y9824981D01*
X-125706096Y9824981D02*
X-125658477Y9777362D01*
X-125658477Y9777362D02*
X-125563239Y9729743D01*
X-125563239Y9729743D02*
X-125277525Y9729743D01*
X-125277525Y9729743D02*
X-125182287Y9777362D01*
X-125182287Y9777362D02*
X-125134668Y9824981D01*
%TO.C,D2*%
X-124229906Y8129543D02*
X-124229906Y9129543D01*
X-124229906Y9129543D02*
X-124468001Y9129543D01*
X-124468001Y9129543D02*
X-124610858Y9081923D01*
X-124610858Y9081923D02*
X-124706096Y8986685D01*
X-124706096Y8986685D02*
X-124753715Y8891447D01*
X-124753715Y8891447D02*
X-124801334Y8700971D01*
X-124801334Y8700971D02*
X-124801334Y8558114D01*
X-124801334Y8558114D02*
X-124753715Y8367638D01*
X-124753715Y8367638D02*
X-124706096Y8272400D01*
X-124706096Y8272400D02*
X-124610858Y8177162D01*
X-124610858Y8177162D02*
X-124468001Y8129543D01*
X-124468001Y8129543D02*
X-124229906Y8129543D01*
X-125182287Y9034304D02*
X-125229906Y9081923D01*
X-125229906Y9081923D02*
X-125325144Y9129543D01*
X-125325144Y9129543D02*
X-125563239Y9129543D01*
X-125563239Y9129543D02*
X-125658477Y9081923D01*
X-125658477Y9081923D02*
X-125706096Y9034304D01*
X-125706096Y9034304D02*
X-125753715Y8939066D01*
X-125753715Y8939066D02*
X-125753715Y8843828D01*
X-125753715Y8843828D02*
X-125706096Y8700971D01*
X-125706096Y8700971D02*
X-125134668Y8129543D01*
X-125134668Y8129543D02*
X-125753715Y8129543D01*
%TO.C,D1*%
X-98448906Y28652743D02*
X-98448906Y29652743D01*
X-98448906Y29652743D02*
X-98687001Y29652743D01*
X-98687001Y29652743D02*
X-98829858Y29605123D01*
X-98829858Y29605123D02*
X-98925096Y29509885D01*
X-98925096Y29509885D02*
X-98972715Y29414647D01*
X-98972715Y29414647D02*
X-99020334Y29224171D01*
X-99020334Y29224171D02*
X-99020334Y29081314D01*
X-99020334Y29081314D02*
X-98972715Y28890838D01*
X-98972715Y28890838D02*
X-98925096Y28795600D01*
X-98925096Y28795600D02*
X-98829858Y28700362D01*
X-98829858Y28700362D02*
X-98687001Y28652743D01*
X-98687001Y28652743D02*
X-98448906Y28652743D01*
X-99972715Y28652743D02*
X-99401287Y28652743D01*
X-99687001Y28652743D02*
X-99687001Y29652743D01*
X-99687001Y29652743D02*
X-99591763Y29509885D01*
X-99591763Y29509885D02*
X-99496525Y29414647D01*
X-99496525Y29414647D02*
X-99401287Y29367028D01*
%TO.C,C32*%
X-15061858Y90622981D02*
X-15014239Y90670600D01*
X-15014239Y90670600D02*
X-14966620Y90813457D01*
X-14966620Y90813457D02*
X-14966620Y90908695D01*
X-14966620Y90908695D02*
X-15014239Y91051552D01*
X-15014239Y91051552D02*
X-15109477Y91146790D01*
X-15109477Y91146790D02*
X-15204715Y91194409D01*
X-15204715Y91194409D02*
X-15395191Y91242028D01*
X-15395191Y91242028D02*
X-15538048Y91242028D01*
X-15538048Y91242028D02*
X-15728524Y91194409D01*
X-15728524Y91194409D02*
X-15823762Y91146790D01*
X-15823762Y91146790D02*
X-15919000Y91051552D01*
X-15919000Y91051552D02*
X-15966620Y90908695D01*
X-15966620Y90908695D02*
X-15966620Y90813457D01*
X-15966620Y90813457D02*
X-15919000Y90670600D01*
X-15919000Y90670600D02*
X-15871381Y90622981D01*
X-15966620Y90289647D02*
X-15966620Y89670600D01*
X-15966620Y89670600D02*
X-15585667Y90003933D01*
X-15585667Y90003933D02*
X-15585667Y89861076D01*
X-15585667Y89861076D02*
X-15538048Y89765838D01*
X-15538048Y89765838D02*
X-15490429Y89718219D01*
X-15490429Y89718219D02*
X-15395191Y89670600D01*
X-15395191Y89670600D02*
X-15157096Y89670600D01*
X-15157096Y89670600D02*
X-15061858Y89718219D01*
X-15061858Y89718219D02*
X-15014239Y89765838D01*
X-15014239Y89765838D02*
X-14966620Y89861076D01*
X-14966620Y89861076D02*
X-14966620Y90146790D01*
X-14966620Y90146790D02*
X-15014239Y90242028D01*
X-15014239Y90242028D02*
X-15061858Y90289647D01*
X-15871381Y89289647D02*
X-15919000Y89242028D01*
X-15919000Y89242028D02*
X-15966620Y89146790D01*
X-15966620Y89146790D02*
X-15966620Y88908695D01*
X-15966620Y88908695D02*
X-15919000Y88813457D01*
X-15919000Y88813457D02*
X-15871381Y88765838D01*
X-15871381Y88765838D02*
X-15776143Y88718219D01*
X-15776143Y88718219D02*
X-15680905Y88718219D01*
X-15680905Y88718219D02*
X-15538048Y88765838D01*
X-15538048Y88765838D02*
X-14966620Y89337266D01*
X-14966620Y89337266D02*
X-14966620Y88718219D01*
%TO.C,C31*%
X-18998858Y73477981D02*
X-18951239Y73525600D01*
X-18951239Y73525600D02*
X-18903620Y73668457D01*
X-18903620Y73668457D02*
X-18903620Y73763695D01*
X-18903620Y73763695D02*
X-18951239Y73906552D01*
X-18951239Y73906552D02*
X-19046477Y74001790D01*
X-19046477Y74001790D02*
X-19141715Y74049409D01*
X-19141715Y74049409D02*
X-19332191Y74097028D01*
X-19332191Y74097028D02*
X-19475048Y74097028D01*
X-19475048Y74097028D02*
X-19665524Y74049409D01*
X-19665524Y74049409D02*
X-19760762Y74001790D01*
X-19760762Y74001790D02*
X-19856000Y73906552D01*
X-19856000Y73906552D02*
X-19903620Y73763695D01*
X-19903620Y73763695D02*
X-19903620Y73668457D01*
X-19903620Y73668457D02*
X-19856000Y73525600D01*
X-19856000Y73525600D02*
X-19808381Y73477981D01*
X-19903620Y73144647D02*
X-19903620Y72525600D01*
X-19903620Y72525600D02*
X-19522667Y72858933D01*
X-19522667Y72858933D02*
X-19522667Y72716076D01*
X-19522667Y72716076D02*
X-19475048Y72620838D01*
X-19475048Y72620838D02*
X-19427429Y72573219D01*
X-19427429Y72573219D02*
X-19332191Y72525600D01*
X-19332191Y72525600D02*
X-19094096Y72525600D01*
X-19094096Y72525600D02*
X-18998858Y72573219D01*
X-18998858Y72573219D02*
X-18951239Y72620838D01*
X-18951239Y72620838D02*
X-18903620Y72716076D01*
X-18903620Y72716076D02*
X-18903620Y73001790D01*
X-18903620Y73001790D02*
X-18951239Y73097028D01*
X-18951239Y73097028D02*
X-18998858Y73144647D01*
X-18903620Y71573219D02*
X-18903620Y72144647D01*
X-18903620Y71858933D02*
X-19903620Y71858933D01*
X-19903620Y71858933D02*
X-19760762Y71954171D01*
X-19760762Y71954171D02*
X-19665524Y72049409D01*
X-19665524Y72049409D02*
X-19617905Y72144647D01*
%TO.C,C30*%
X-22300858Y55697981D02*
X-22253239Y55745600D01*
X-22253239Y55745600D02*
X-22205620Y55888457D01*
X-22205620Y55888457D02*
X-22205620Y55983695D01*
X-22205620Y55983695D02*
X-22253239Y56126552D01*
X-22253239Y56126552D02*
X-22348477Y56221790D01*
X-22348477Y56221790D02*
X-22443715Y56269409D01*
X-22443715Y56269409D02*
X-22634191Y56317028D01*
X-22634191Y56317028D02*
X-22777048Y56317028D01*
X-22777048Y56317028D02*
X-22967524Y56269409D01*
X-22967524Y56269409D02*
X-23062762Y56221790D01*
X-23062762Y56221790D02*
X-23158000Y56126552D01*
X-23158000Y56126552D02*
X-23205620Y55983695D01*
X-23205620Y55983695D02*
X-23205620Y55888457D01*
X-23205620Y55888457D02*
X-23158000Y55745600D01*
X-23158000Y55745600D02*
X-23110381Y55697981D01*
X-23205620Y55364647D02*
X-23205620Y54745600D01*
X-23205620Y54745600D02*
X-22824667Y55078933D01*
X-22824667Y55078933D02*
X-22824667Y54936076D01*
X-22824667Y54936076D02*
X-22777048Y54840838D01*
X-22777048Y54840838D02*
X-22729429Y54793219D01*
X-22729429Y54793219D02*
X-22634191Y54745600D01*
X-22634191Y54745600D02*
X-22396096Y54745600D01*
X-22396096Y54745600D02*
X-22300858Y54793219D01*
X-22300858Y54793219D02*
X-22253239Y54840838D01*
X-22253239Y54840838D02*
X-22205620Y54936076D01*
X-22205620Y54936076D02*
X-22205620Y55221790D01*
X-22205620Y55221790D02*
X-22253239Y55317028D01*
X-22253239Y55317028D02*
X-22300858Y55364647D01*
X-23205620Y54126552D02*
X-23205620Y54031314D01*
X-23205620Y54031314D02*
X-23158000Y53936076D01*
X-23158000Y53936076D02*
X-23110381Y53888457D01*
X-23110381Y53888457D02*
X-23015143Y53840838D01*
X-23015143Y53840838D02*
X-22824667Y53793219D01*
X-22824667Y53793219D02*
X-22586572Y53793219D01*
X-22586572Y53793219D02*
X-22396096Y53840838D01*
X-22396096Y53840838D02*
X-22300858Y53888457D01*
X-22300858Y53888457D02*
X-22253239Y53936076D01*
X-22253239Y53936076D02*
X-22205620Y54031314D01*
X-22205620Y54031314D02*
X-22205620Y54126552D01*
X-22205620Y54126552D02*
X-22253239Y54221790D01*
X-22253239Y54221790D02*
X-22300858Y54269409D01*
X-22300858Y54269409D02*
X-22396096Y54317028D01*
X-22396096Y54317028D02*
X-22586572Y54364647D01*
X-22586572Y54364647D02*
X-22824667Y54364647D01*
X-22824667Y54364647D02*
X-23015143Y54317028D01*
X-23015143Y54317028D02*
X-23110381Y54269409D01*
X-23110381Y54269409D02*
X-23158000Y54221790D01*
X-23158000Y54221790D02*
X-23205620Y54126552D01*
%TO.C,C29*%
X-26110858Y37663981D02*
X-26063239Y37711600D01*
X-26063239Y37711600D02*
X-26015620Y37854457D01*
X-26015620Y37854457D02*
X-26015620Y37949695D01*
X-26015620Y37949695D02*
X-26063239Y38092552D01*
X-26063239Y38092552D02*
X-26158477Y38187790D01*
X-26158477Y38187790D02*
X-26253715Y38235409D01*
X-26253715Y38235409D02*
X-26444191Y38283028D01*
X-26444191Y38283028D02*
X-26587048Y38283028D01*
X-26587048Y38283028D02*
X-26777524Y38235409D01*
X-26777524Y38235409D02*
X-26872762Y38187790D01*
X-26872762Y38187790D02*
X-26968000Y38092552D01*
X-26968000Y38092552D02*
X-27015620Y37949695D01*
X-27015620Y37949695D02*
X-27015620Y37854457D01*
X-27015620Y37854457D02*
X-26968000Y37711600D01*
X-26968000Y37711600D02*
X-26920381Y37663981D01*
X-26920381Y37283028D02*
X-26968000Y37235409D01*
X-26968000Y37235409D02*
X-27015620Y37140171D01*
X-27015620Y37140171D02*
X-27015620Y36902076D01*
X-27015620Y36902076D02*
X-26968000Y36806838D01*
X-26968000Y36806838D02*
X-26920381Y36759219D01*
X-26920381Y36759219D02*
X-26825143Y36711600D01*
X-26825143Y36711600D02*
X-26729905Y36711600D01*
X-26729905Y36711600D02*
X-26587048Y36759219D01*
X-26587048Y36759219D02*
X-26015620Y37330647D01*
X-26015620Y37330647D02*
X-26015620Y36711600D01*
X-26015620Y36235409D02*
X-26015620Y36044933D01*
X-26015620Y36044933D02*
X-26063239Y35949695D01*
X-26063239Y35949695D02*
X-26110858Y35902076D01*
X-26110858Y35902076D02*
X-26253715Y35806838D01*
X-26253715Y35806838D02*
X-26444191Y35759219D01*
X-26444191Y35759219D02*
X-26825143Y35759219D01*
X-26825143Y35759219D02*
X-26920381Y35806838D01*
X-26920381Y35806838D02*
X-26968000Y35854457D01*
X-26968000Y35854457D02*
X-27015620Y35949695D01*
X-27015620Y35949695D02*
X-27015620Y36140171D01*
X-27015620Y36140171D02*
X-26968000Y36235409D01*
X-26968000Y36235409D02*
X-26920381Y36283028D01*
X-26920381Y36283028D02*
X-26825143Y36330647D01*
X-26825143Y36330647D02*
X-26587048Y36330647D01*
X-26587048Y36330647D02*
X-26491810Y36283028D01*
X-26491810Y36283028D02*
X-26444191Y36235409D01*
X-26444191Y36235409D02*
X-26396572Y36140171D01*
X-26396572Y36140171D02*
X-26396572Y35949695D01*
X-26396572Y35949695D02*
X-26444191Y35854457D01*
X-26444191Y35854457D02*
X-26491810Y35806838D01*
X-26491810Y35806838D02*
X-26587048Y35759219D01*
%TO.C,C28*%
X-29920858Y20010981D02*
X-29873239Y20058600D01*
X-29873239Y20058600D02*
X-29825620Y20201457D01*
X-29825620Y20201457D02*
X-29825620Y20296695D01*
X-29825620Y20296695D02*
X-29873239Y20439552D01*
X-29873239Y20439552D02*
X-29968477Y20534790D01*
X-29968477Y20534790D02*
X-30063715Y20582409D01*
X-30063715Y20582409D02*
X-30254191Y20630028D01*
X-30254191Y20630028D02*
X-30397048Y20630028D01*
X-30397048Y20630028D02*
X-30587524Y20582409D01*
X-30587524Y20582409D02*
X-30682762Y20534790D01*
X-30682762Y20534790D02*
X-30778000Y20439552D01*
X-30778000Y20439552D02*
X-30825620Y20296695D01*
X-30825620Y20296695D02*
X-30825620Y20201457D01*
X-30825620Y20201457D02*
X-30778000Y20058600D01*
X-30778000Y20058600D02*
X-30730381Y20010981D01*
X-30730381Y19630028D02*
X-30778000Y19582409D01*
X-30778000Y19582409D02*
X-30825620Y19487171D01*
X-30825620Y19487171D02*
X-30825620Y19249076D01*
X-30825620Y19249076D02*
X-30778000Y19153838D01*
X-30778000Y19153838D02*
X-30730381Y19106219D01*
X-30730381Y19106219D02*
X-30635143Y19058600D01*
X-30635143Y19058600D02*
X-30539905Y19058600D01*
X-30539905Y19058600D02*
X-30397048Y19106219D01*
X-30397048Y19106219D02*
X-29825620Y19677647D01*
X-29825620Y19677647D02*
X-29825620Y19058600D01*
X-30397048Y18487171D02*
X-30444667Y18582409D01*
X-30444667Y18582409D02*
X-30492286Y18630028D01*
X-30492286Y18630028D02*
X-30587524Y18677647D01*
X-30587524Y18677647D02*
X-30635143Y18677647D01*
X-30635143Y18677647D02*
X-30730381Y18630028D01*
X-30730381Y18630028D02*
X-30778000Y18582409D01*
X-30778000Y18582409D02*
X-30825620Y18487171D01*
X-30825620Y18487171D02*
X-30825620Y18296695D01*
X-30825620Y18296695D02*
X-30778000Y18201457D01*
X-30778000Y18201457D02*
X-30730381Y18153838D01*
X-30730381Y18153838D02*
X-30635143Y18106219D01*
X-30635143Y18106219D02*
X-30587524Y18106219D01*
X-30587524Y18106219D02*
X-30492286Y18153838D01*
X-30492286Y18153838D02*
X-30444667Y18201457D01*
X-30444667Y18201457D02*
X-30397048Y18296695D01*
X-30397048Y18296695D02*
X-30397048Y18487171D01*
X-30397048Y18487171D02*
X-30349429Y18582409D01*
X-30349429Y18582409D02*
X-30301810Y18630028D01*
X-30301810Y18630028D02*
X-30206572Y18677647D01*
X-30206572Y18677647D02*
X-30016096Y18677647D01*
X-30016096Y18677647D02*
X-29920858Y18630028D01*
X-29920858Y18630028D02*
X-29873239Y18582409D01*
X-29873239Y18582409D02*
X-29825620Y18487171D01*
X-29825620Y18487171D02*
X-29825620Y18296695D01*
X-29825620Y18296695D02*
X-29873239Y18201457D01*
X-29873239Y18201457D02*
X-29920858Y18153838D01*
X-29920858Y18153838D02*
X-30016096Y18106219D01*
X-30016096Y18106219D02*
X-30206572Y18106219D01*
X-30206572Y18106219D02*
X-30301810Y18153838D01*
X-30301810Y18153838D02*
X-30349429Y18201457D01*
X-30349429Y18201457D02*
X-30397048Y18296695D01*
%TO.C,C27*%
X-39826858Y7945981D02*
X-39779239Y7993600D01*
X-39779239Y7993600D02*
X-39731620Y8136457D01*
X-39731620Y8136457D02*
X-39731620Y8231695D01*
X-39731620Y8231695D02*
X-39779239Y8374552D01*
X-39779239Y8374552D02*
X-39874477Y8469790D01*
X-39874477Y8469790D02*
X-39969715Y8517409D01*
X-39969715Y8517409D02*
X-40160191Y8565028D01*
X-40160191Y8565028D02*
X-40303048Y8565028D01*
X-40303048Y8565028D02*
X-40493524Y8517409D01*
X-40493524Y8517409D02*
X-40588762Y8469790D01*
X-40588762Y8469790D02*
X-40684000Y8374552D01*
X-40684000Y8374552D02*
X-40731620Y8231695D01*
X-40731620Y8231695D02*
X-40731620Y8136457D01*
X-40731620Y8136457D02*
X-40684000Y7993600D01*
X-40684000Y7993600D02*
X-40636381Y7945981D01*
X-40636381Y7565028D02*
X-40684000Y7517409D01*
X-40684000Y7517409D02*
X-40731620Y7422171D01*
X-40731620Y7422171D02*
X-40731620Y7184076D01*
X-40731620Y7184076D02*
X-40684000Y7088838D01*
X-40684000Y7088838D02*
X-40636381Y7041219D01*
X-40636381Y7041219D02*
X-40541143Y6993600D01*
X-40541143Y6993600D02*
X-40445905Y6993600D01*
X-40445905Y6993600D02*
X-40303048Y7041219D01*
X-40303048Y7041219D02*
X-39731620Y7612647D01*
X-39731620Y7612647D02*
X-39731620Y6993600D01*
X-40731620Y6660266D02*
X-40731620Y5993600D01*
X-40731620Y5993600D02*
X-39731620Y6422171D01*
%TO.C,C26*%
X-48843858Y20010981D02*
X-48796239Y20058600D01*
X-48796239Y20058600D02*
X-48748620Y20201457D01*
X-48748620Y20201457D02*
X-48748620Y20296695D01*
X-48748620Y20296695D02*
X-48796239Y20439552D01*
X-48796239Y20439552D02*
X-48891477Y20534790D01*
X-48891477Y20534790D02*
X-48986715Y20582409D01*
X-48986715Y20582409D02*
X-49177191Y20630028D01*
X-49177191Y20630028D02*
X-49320048Y20630028D01*
X-49320048Y20630028D02*
X-49510524Y20582409D01*
X-49510524Y20582409D02*
X-49605762Y20534790D01*
X-49605762Y20534790D02*
X-49701000Y20439552D01*
X-49701000Y20439552D02*
X-49748620Y20296695D01*
X-49748620Y20296695D02*
X-49748620Y20201457D01*
X-49748620Y20201457D02*
X-49701000Y20058600D01*
X-49701000Y20058600D02*
X-49653381Y20010981D01*
X-49653381Y19630028D02*
X-49701000Y19582409D01*
X-49701000Y19582409D02*
X-49748620Y19487171D01*
X-49748620Y19487171D02*
X-49748620Y19249076D01*
X-49748620Y19249076D02*
X-49701000Y19153838D01*
X-49701000Y19153838D02*
X-49653381Y19106219D01*
X-49653381Y19106219D02*
X-49558143Y19058600D01*
X-49558143Y19058600D02*
X-49462905Y19058600D01*
X-49462905Y19058600D02*
X-49320048Y19106219D01*
X-49320048Y19106219D02*
X-48748620Y19677647D01*
X-48748620Y19677647D02*
X-48748620Y19058600D01*
X-49748620Y18201457D02*
X-49748620Y18391933D01*
X-49748620Y18391933D02*
X-49701000Y18487171D01*
X-49701000Y18487171D02*
X-49653381Y18534790D01*
X-49653381Y18534790D02*
X-49510524Y18630028D01*
X-49510524Y18630028D02*
X-49320048Y18677647D01*
X-49320048Y18677647D02*
X-48939096Y18677647D01*
X-48939096Y18677647D02*
X-48843858Y18630028D01*
X-48843858Y18630028D02*
X-48796239Y18582409D01*
X-48796239Y18582409D02*
X-48748620Y18487171D01*
X-48748620Y18487171D02*
X-48748620Y18296695D01*
X-48748620Y18296695D02*
X-48796239Y18201457D01*
X-48796239Y18201457D02*
X-48843858Y18153838D01*
X-48843858Y18153838D02*
X-48939096Y18106219D01*
X-48939096Y18106219D02*
X-49177191Y18106219D01*
X-49177191Y18106219D02*
X-49272429Y18153838D01*
X-49272429Y18153838D02*
X-49320048Y18201457D01*
X-49320048Y18201457D02*
X-49367667Y18296695D01*
X-49367667Y18296695D02*
X-49367667Y18487171D01*
X-49367667Y18487171D02*
X-49320048Y18582409D01*
X-49320048Y18582409D02*
X-49272429Y18630028D01*
X-49272429Y18630028D02*
X-49177191Y18677647D01*
%TO.C,C25*%
X-53288858Y37790981D02*
X-53241239Y37838600D01*
X-53241239Y37838600D02*
X-53193620Y37981457D01*
X-53193620Y37981457D02*
X-53193620Y38076695D01*
X-53193620Y38076695D02*
X-53241239Y38219552D01*
X-53241239Y38219552D02*
X-53336477Y38314790D01*
X-53336477Y38314790D02*
X-53431715Y38362409D01*
X-53431715Y38362409D02*
X-53622191Y38410028D01*
X-53622191Y38410028D02*
X-53765048Y38410028D01*
X-53765048Y38410028D02*
X-53955524Y38362409D01*
X-53955524Y38362409D02*
X-54050762Y38314790D01*
X-54050762Y38314790D02*
X-54146000Y38219552D01*
X-54146000Y38219552D02*
X-54193620Y38076695D01*
X-54193620Y38076695D02*
X-54193620Y37981457D01*
X-54193620Y37981457D02*
X-54146000Y37838600D01*
X-54146000Y37838600D02*
X-54098381Y37790981D01*
X-54098381Y37410028D02*
X-54146000Y37362409D01*
X-54146000Y37362409D02*
X-54193620Y37267171D01*
X-54193620Y37267171D02*
X-54193620Y37029076D01*
X-54193620Y37029076D02*
X-54146000Y36933838D01*
X-54146000Y36933838D02*
X-54098381Y36886219D01*
X-54098381Y36886219D02*
X-54003143Y36838600D01*
X-54003143Y36838600D02*
X-53907905Y36838600D01*
X-53907905Y36838600D02*
X-53765048Y36886219D01*
X-53765048Y36886219D02*
X-53193620Y37457647D01*
X-53193620Y37457647D02*
X-53193620Y36838600D01*
X-54193620Y35933838D02*
X-54193620Y36410028D01*
X-54193620Y36410028D02*
X-53717429Y36457647D01*
X-53717429Y36457647D02*
X-53765048Y36410028D01*
X-53765048Y36410028D02*
X-53812667Y36314790D01*
X-53812667Y36314790D02*
X-53812667Y36076695D01*
X-53812667Y36076695D02*
X-53765048Y35981457D01*
X-53765048Y35981457D02*
X-53717429Y35933838D01*
X-53717429Y35933838D02*
X-53622191Y35886219D01*
X-53622191Y35886219D02*
X-53384096Y35886219D01*
X-53384096Y35886219D02*
X-53288858Y35933838D01*
X-53288858Y35933838D02*
X-53241239Y35981457D01*
X-53241239Y35981457D02*
X-53193620Y36076695D01*
X-53193620Y36076695D02*
X-53193620Y36314790D01*
X-53193620Y36314790D02*
X-53241239Y36410028D01*
X-53241239Y36410028D02*
X-53288858Y36457647D01*
%TO.C,C24*%
X-56463858Y52141981D02*
X-56416239Y52189600D01*
X-56416239Y52189600D02*
X-56368620Y52332457D01*
X-56368620Y52332457D02*
X-56368620Y52427695D01*
X-56368620Y52427695D02*
X-56416239Y52570552D01*
X-56416239Y52570552D02*
X-56511477Y52665790D01*
X-56511477Y52665790D02*
X-56606715Y52713409D01*
X-56606715Y52713409D02*
X-56797191Y52761028D01*
X-56797191Y52761028D02*
X-56940048Y52761028D01*
X-56940048Y52761028D02*
X-57130524Y52713409D01*
X-57130524Y52713409D02*
X-57225762Y52665790D01*
X-57225762Y52665790D02*
X-57321000Y52570552D01*
X-57321000Y52570552D02*
X-57368620Y52427695D01*
X-57368620Y52427695D02*
X-57368620Y52332457D01*
X-57368620Y52332457D02*
X-57321000Y52189600D01*
X-57321000Y52189600D02*
X-57273381Y52141981D01*
X-57273381Y51761028D02*
X-57321000Y51713409D01*
X-57321000Y51713409D02*
X-57368620Y51618171D01*
X-57368620Y51618171D02*
X-57368620Y51380076D01*
X-57368620Y51380076D02*
X-57321000Y51284838D01*
X-57321000Y51284838D02*
X-57273381Y51237219D01*
X-57273381Y51237219D02*
X-57178143Y51189600D01*
X-57178143Y51189600D02*
X-57082905Y51189600D01*
X-57082905Y51189600D02*
X-56940048Y51237219D01*
X-56940048Y51237219D02*
X-56368620Y51808647D01*
X-56368620Y51808647D02*
X-56368620Y51189600D01*
X-57035286Y50332457D02*
X-56368620Y50332457D01*
X-57416239Y50570552D02*
X-56701953Y50808647D01*
X-56701953Y50808647D02*
X-56701953Y50189600D01*
%TO.C,C23*%
X-59003858Y67635981D02*
X-58956239Y67683600D01*
X-58956239Y67683600D02*
X-58908620Y67826457D01*
X-58908620Y67826457D02*
X-58908620Y67921695D01*
X-58908620Y67921695D02*
X-58956239Y68064552D01*
X-58956239Y68064552D02*
X-59051477Y68159790D01*
X-59051477Y68159790D02*
X-59146715Y68207409D01*
X-59146715Y68207409D02*
X-59337191Y68255028D01*
X-59337191Y68255028D02*
X-59480048Y68255028D01*
X-59480048Y68255028D02*
X-59670524Y68207409D01*
X-59670524Y68207409D02*
X-59765762Y68159790D01*
X-59765762Y68159790D02*
X-59861000Y68064552D01*
X-59861000Y68064552D02*
X-59908620Y67921695D01*
X-59908620Y67921695D02*
X-59908620Y67826457D01*
X-59908620Y67826457D02*
X-59861000Y67683600D01*
X-59861000Y67683600D02*
X-59813381Y67635981D01*
X-59813381Y67255028D02*
X-59861000Y67207409D01*
X-59861000Y67207409D02*
X-59908620Y67112171D01*
X-59908620Y67112171D02*
X-59908620Y66874076D01*
X-59908620Y66874076D02*
X-59861000Y66778838D01*
X-59861000Y66778838D02*
X-59813381Y66731219D01*
X-59813381Y66731219D02*
X-59718143Y66683600D01*
X-59718143Y66683600D02*
X-59622905Y66683600D01*
X-59622905Y66683600D02*
X-59480048Y66731219D01*
X-59480048Y66731219D02*
X-58908620Y67302647D01*
X-58908620Y67302647D02*
X-58908620Y66683600D01*
X-59908620Y66350266D02*
X-59908620Y65731219D01*
X-59908620Y65731219D02*
X-59527667Y66064552D01*
X-59527667Y66064552D02*
X-59527667Y65921695D01*
X-59527667Y65921695D02*
X-59480048Y65826457D01*
X-59480048Y65826457D02*
X-59432429Y65778838D01*
X-59432429Y65778838D02*
X-59337191Y65731219D01*
X-59337191Y65731219D02*
X-59099096Y65731219D01*
X-59099096Y65731219D02*
X-59003858Y65778838D01*
X-59003858Y65778838D02*
X-58956239Y65826457D01*
X-58956239Y65826457D02*
X-58908620Y65921695D01*
X-58908620Y65921695D02*
X-58908620Y66207409D01*
X-58908620Y66207409D02*
X-58956239Y66302647D01*
X-58956239Y66302647D02*
X-59003858Y66350266D01*
%TO.C,C22*%
X-65226858Y80335981D02*
X-65179239Y80383600D01*
X-65179239Y80383600D02*
X-65131620Y80526457D01*
X-65131620Y80526457D02*
X-65131620Y80621695D01*
X-65131620Y80621695D02*
X-65179239Y80764552D01*
X-65179239Y80764552D02*
X-65274477Y80859790D01*
X-65274477Y80859790D02*
X-65369715Y80907409D01*
X-65369715Y80907409D02*
X-65560191Y80955028D01*
X-65560191Y80955028D02*
X-65703048Y80955028D01*
X-65703048Y80955028D02*
X-65893524Y80907409D01*
X-65893524Y80907409D02*
X-65988762Y80859790D01*
X-65988762Y80859790D02*
X-66084000Y80764552D01*
X-66084000Y80764552D02*
X-66131620Y80621695D01*
X-66131620Y80621695D02*
X-66131620Y80526457D01*
X-66131620Y80526457D02*
X-66084000Y80383600D01*
X-66084000Y80383600D02*
X-66036381Y80335981D01*
X-66036381Y79955028D02*
X-66084000Y79907409D01*
X-66084000Y79907409D02*
X-66131620Y79812171D01*
X-66131620Y79812171D02*
X-66131620Y79574076D01*
X-66131620Y79574076D02*
X-66084000Y79478838D01*
X-66084000Y79478838D02*
X-66036381Y79431219D01*
X-66036381Y79431219D02*
X-65941143Y79383600D01*
X-65941143Y79383600D02*
X-65845905Y79383600D01*
X-65845905Y79383600D02*
X-65703048Y79431219D01*
X-65703048Y79431219D02*
X-65131620Y80002647D01*
X-65131620Y80002647D02*
X-65131620Y79383600D01*
X-66036381Y79002647D02*
X-66084000Y78955028D01*
X-66084000Y78955028D02*
X-66131620Y78859790D01*
X-66131620Y78859790D02*
X-66131620Y78621695D01*
X-66131620Y78621695D02*
X-66084000Y78526457D01*
X-66084000Y78526457D02*
X-66036381Y78478838D01*
X-66036381Y78478838D02*
X-65941143Y78431219D01*
X-65941143Y78431219D02*
X-65845905Y78431219D01*
X-65845905Y78431219D02*
X-65703048Y78478838D01*
X-65703048Y78478838D02*
X-65131620Y79050266D01*
X-65131620Y79050266D02*
X-65131620Y78431219D01*
%TO.C,C21*%
X-74878858Y90622981D02*
X-74831239Y90670600D01*
X-74831239Y90670600D02*
X-74783620Y90813457D01*
X-74783620Y90813457D02*
X-74783620Y90908695D01*
X-74783620Y90908695D02*
X-74831239Y91051552D01*
X-74831239Y91051552D02*
X-74926477Y91146790D01*
X-74926477Y91146790D02*
X-75021715Y91194409D01*
X-75021715Y91194409D02*
X-75212191Y91242028D01*
X-75212191Y91242028D02*
X-75355048Y91242028D01*
X-75355048Y91242028D02*
X-75545524Y91194409D01*
X-75545524Y91194409D02*
X-75640762Y91146790D01*
X-75640762Y91146790D02*
X-75736000Y91051552D01*
X-75736000Y91051552D02*
X-75783620Y90908695D01*
X-75783620Y90908695D02*
X-75783620Y90813457D01*
X-75783620Y90813457D02*
X-75736000Y90670600D01*
X-75736000Y90670600D02*
X-75688381Y90622981D01*
X-75688381Y90242028D02*
X-75736000Y90194409D01*
X-75736000Y90194409D02*
X-75783620Y90099171D01*
X-75783620Y90099171D02*
X-75783620Y89861076D01*
X-75783620Y89861076D02*
X-75736000Y89765838D01*
X-75736000Y89765838D02*
X-75688381Y89718219D01*
X-75688381Y89718219D02*
X-75593143Y89670600D01*
X-75593143Y89670600D02*
X-75497905Y89670600D01*
X-75497905Y89670600D02*
X-75355048Y89718219D01*
X-75355048Y89718219D02*
X-74783620Y90289647D01*
X-74783620Y90289647D02*
X-74783620Y89670600D01*
X-74783620Y88718219D02*
X-74783620Y89289647D01*
X-74783620Y89003933D02*
X-75783620Y89003933D01*
X-75783620Y89003933D02*
X-75640762Y89099171D01*
X-75640762Y89099171D02*
X-75545524Y89194409D01*
X-75545524Y89194409D02*
X-75497905Y89289647D01*
%TO.C,C20*%
X-85165858Y80589981D02*
X-85118239Y80637600D01*
X-85118239Y80637600D02*
X-85070620Y80780457D01*
X-85070620Y80780457D02*
X-85070620Y80875695D01*
X-85070620Y80875695D02*
X-85118239Y81018552D01*
X-85118239Y81018552D02*
X-85213477Y81113790D01*
X-85213477Y81113790D02*
X-85308715Y81161409D01*
X-85308715Y81161409D02*
X-85499191Y81209028D01*
X-85499191Y81209028D02*
X-85642048Y81209028D01*
X-85642048Y81209028D02*
X-85832524Y81161409D01*
X-85832524Y81161409D02*
X-85927762Y81113790D01*
X-85927762Y81113790D02*
X-86023000Y81018552D01*
X-86023000Y81018552D02*
X-86070620Y80875695D01*
X-86070620Y80875695D02*
X-86070620Y80780457D01*
X-86070620Y80780457D02*
X-86023000Y80637600D01*
X-86023000Y80637600D02*
X-85975381Y80589981D01*
X-85975381Y80209028D02*
X-86023000Y80161409D01*
X-86023000Y80161409D02*
X-86070620Y80066171D01*
X-86070620Y80066171D02*
X-86070620Y79828076D01*
X-86070620Y79828076D02*
X-86023000Y79732838D01*
X-86023000Y79732838D02*
X-85975381Y79685219D01*
X-85975381Y79685219D02*
X-85880143Y79637600D01*
X-85880143Y79637600D02*
X-85784905Y79637600D01*
X-85784905Y79637600D02*
X-85642048Y79685219D01*
X-85642048Y79685219D02*
X-85070620Y80256647D01*
X-85070620Y80256647D02*
X-85070620Y79637600D01*
X-86070620Y79018552D02*
X-86070620Y78923314D01*
X-86070620Y78923314D02*
X-86023000Y78828076D01*
X-86023000Y78828076D02*
X-85975381Y78780457D01*
X-85975381Y78780457D02*
X-85880143Y78732838D01*
X-85880143Y78732838D02*
X-85689667Y78685219D01*
X-85689667Y78685219D02*
X-85451572Y78685219D01*
X-85451572Y78685219D02*
X-85261096Y78732838D01*
X-85261096Y78732838D02*
X-85165858Y78780457D01*
X-85165858Y78780457D02*
X-85118239Y78828076D01*
X-85118239Y78828076D02*
X-85070620Y78923314D01*
X-85070620Y78923314D02*
X-85070620Y79018552D01*
X-85070620Y79018552D02*
X-85118239Y79113790D01*
X-85118239Y79113790D02*
X-85165858Y79161409D01*
X-85165858Y79161409D02*
X-85261096Y79209028D01*
X-85261096Y79209028D02*
X-85451572Y79256647D01*
X-85451572Y79256647D02*
X-85689667Y79256647D01*
X-85689667Y79256647D02*
X-85880143Y79209028D01*
X-85880143Y79209028D02*
X-85975381Y79161409D01*
X-85975381Y79161409D02*
X-86023000Y79113790D01*
X-86023000Y79113790D02*
X-86070620Y79018552D01*
%TO.C,C19*%
X-89991858Y67889981D02*
X-89944239Y67937600D01*
X-89944239Y67937600D02*
X-89896620Y68080457D01*
X-89896620Y68080457D02*
X-89896620Y68175695D01*
X-89896620Y68175695D02*
X-89944239Y68318552D01*
X-89944239Y68318552D02*
X-90039477Y68413790D01*
X-90039477Y68413790D02*
X-90134715Y68461409D01*
X-90134715Y68461409D02*
X-90325191Y68509028D01*
X-90325191Y68509028D02*
X-90468048Y68509028D01*
X-90468048Y68509028D02*
X-90658524Y68461409D01*
X-90658524Y68461409D02*
X-90753762Y68413790D01*
X-90753762Y68413790D02*
X-90849000Y68318552D01*
X-90849000Y68318552D02*
X-90896620Y68175695D01*
X-90896620Y68175695D02*
X-90896620Y68080457D01*
X-90896620Y68080457D02*
X-90849000Y67937600D01*
X-90849000Y67937600D02*
X-90801381Y67889981D01*
X-89896620Y66937600D02*
X-89896620Y67509028D01*
X-89896620Y67223314D02*
X-90896620Y67223314D01*
X-90896620Y67223314D02*
X-90753762Y67318552D01*
X-90753762Y67318552D02*
X-90658524Y67413790D01*
X-90658524Y67413790D02*
X-90610905Y67509028D01*
X-89896620Y66461409D02*
X-89896620Y66270933D01*
X-89896620Y66270933D02*
X-89944239Y66175695D01*
X-89944239Y66175695D02*
X-89991858Y66128076D01*
X-89991858Y66128076D02*
X-90134715Y66032838D01*
X-90134715Y66032838D02*
X-90325191Y65985219D01*
X-90325191Y65985219D02*
X-90706143Y65985219D01*
X-90706143Y65985219D02*
X-90801381Y66032838D01*
X-90801381Y66032838D02*
X-90849000Y66080457D01*
X-90849000Y66080457D02*
X-90896620Y66175695D01*
X-90896620Y66175695D02*
X-90896620Y66366171D01*
X-90896620Y66366171D02*
X-90849000Y66461409D01*
X-90849000Y66461409D02*
X-90801381Y66509028D01*
X-90801381Y66509028D02*
X-90706143Y66556647D01*
X-90706143Y66556647D02*
X-90468048Y66556647D01*
X-90468048Y66556647D02*
X-90372810Y66509028D01*
X-90372810Y66509028D02*
X-90325191Y66461409D01*
X-90325191Y66461409D02*
X-90277572Y66366171D01*
X-90277572Y66366171D02*
X-90277572Y66175695D01*
X-90277572Y66175695D02*
X-90325191Y66080457D01*
X-90325191Y66080457D02*
X-90372810Y66032838D01*
X-90372810Y66032838D02*
X-90468048Y65985219D01*
%TO.C,C18*%
X-92785858Y52141981D02*
X-92738239Y52189600D01*
X-92738239Y52189600D02*
X-92690620Y52332457D01*
X-92690620Y52332457D02*
X-92690620Y52427695D01*
X-92690620Y52427695D02*
X-92738239Y52570552D01*
X-92738239Y52570552D02*
X-92833477Y52665790D01*
X-92833477Y52665790D02*
X-92928715Y52713409D01*
X-92928715Y52713409D02*
X-93119191Y52761028D01*
X-93119191Y52761028D02*
X-93262048Y52761028D01*
X-93262048Y52761028D02*
X-93452524Y52713409D01*
X-93452524Y52713409D02*
X-93547762Y52665790D01*
X-93547762Y52665790D02*
X-93643000Y52570552D01*
X-93643000Y52570552D02*
X-93690620Y52427695D01*
X-93690620Y52427695D02*
X-93690620Y52332457D01*
X-93690620Y52332457D02*
X-93643000Y52189600D01*
X-93643000Y52189600D02*
X-93595381Y52141981D01*
X-92690620Y51189600D02*
X-92690620Y51761028D01*
X-92690620Y51475314D02*
X-93690620Y51475314D01*
X-93690620Y51475314D02*
X-93547762Y51570552D01*
X-93547762Y51570552D02*
X-93452524Y51665790D01*
X-93452524Y51665790D02*
X-93404905Y51761028D01*
X-93262048Y50618171D02*
X-93309667Y50713409D01*
X-93309667Y50713409D02*
X-93357286Y50761028D01*
X-93357286Y50761028D02*
X-93452524Y50808647D01*
X-93452524Y50808647D02*
X-93500143Y50808647D01*
X-93500143Y50808647D02*
X-93595381Y50761028D01*
X-93595381Y50761028D02*
X-93643000Y50713409D01*
X-93643000Y50713409D02*
X-93690620Y50618171D01*
X-93690620Y50618171D02*
X-93690620Y50427695D01*
X-93690620Y50427695D02*
X-93643000Y50332457D01*
X-93643000Y50332457D02*
X-93595381Y50284838D01*
X-93595381Y50284838D02*
X-93500143Y50237219D01*
X-93500143Y50237219D02*
X-93452524Y50237219D01*
X-93452524Y50237219D02*
X-93357286Y50284838D01*
X-93357286Y50284838D02*
X-93309667Y50332457D01*
X-93309667Y50332457D02*
X-93262048Y50427695D01*
X-93262048Y50427695D02*
X-93262048Y50618171D01*
X-93262048Y50618171D02*
X-93214429Y50713409D01*
X-93214429Y50713409D02*
X-93166810Y50761028D01*
X-93166810Y50761028D02*
X-93071572Y50808647D01*
X-93071572Y50808647D02*
X-92881096Y50808647D01*
X-92881096Y50808647D02*
X-92785858Y50761028D01*
X-92785858Y50761028D02*
X-92738239Y50713409D01*
X-92738239Y50713409D02*
X-92690620Y50618171D01*
X-92690620Y50618171D02*
X-92690620Y50427695D01*
X-92690620Y50427695D02*
X-92738239Y50332457D01*
X-92738239Y50332457D02*
X-92785858Y50284838D01*
X-92785858Y50284838D02*
X-92881096Y50237219D01*
X-92881096Y50237219D02*
X-93071572Y50237219D01*
X-93071572Y50237219D02*
X-93166810Y50284838D01*
X-93166810Y50284838D02*
X-93214429Y50332457D01*
X-93214429Y50332457D02*
X-93262048Y50427695D01*
%TO.C,C17*%
X-95833858Y37917981D02*
X-95786239Y37965600D01*
X-95786239Y37965600D02*
X-95738620Y38108457D01*
X-95738620Y38108457D02*
X-95738620Y38203695D01*
X-95738620Y38203695D02*
X-95786239Y38346552D01*
X-95786239Y38346552D02*
X-95881477Y38441790D01*
X-95881477Y38441790D02*
X-95976715Y38489409D01*
X-95976715Y38489409D02*
X-96167191Y38537028D01*
X-96167191Y38537028D02*
X-96310048Y38537028D01*
X-96310048Y38537028D02*
X-96500524Y38489409D01*
X-96500524Y38489409D02*
X-96595762Y38441790D01*
X-96595762Y38441790D02*
X-96691000Y38346552D01*
X-96691000Y38346552D02*
X-96738620Y38203695D01*
X-96738620Y38203695D02*
X-96738620Y38108457D01*
X-96738620Y38108457D02*
X-96691000Y37965600D01*
X-96691000Y37965600D02*
X-96643381Y37917981D01*
X-95738620Y36965600D02*
X-95738620Y37537028D01*
X-95738620Y37251314D02*
X-96738620Y37251314D01*
X-96738620Y37251314D02*
X-96595762Y37346552D01*
X-96595762Y37346552D02*
X-96500524Y37441790D01*
X-96500524Y37441790D02*
X-96452905Y37537028D01*
X-96738620Y36632266D02*
X-96738620Y35965600D01*
X-96738620Y35965600D02*
X-95738620Y36394171D01*
%TO.C,C16*%
X-106291143Y28493981D02*
X-106243524Y28446362D01*
X-106243524Y28446362D02*
X-106100667Y28398743D01*
X-106100667Y28398743D02*
X-106005429Y28398743D01*
X-106005429Y28398743D02*
X-105862572Y28446362D01*
X-105862572Y28446362D02*
X-105767334Y28541600D01*
X-105767334Y28541600D02*
X-105719715Y28636838D01*
X-105719715Y28636838D02*
X-105672096Y28827314D01*
X-105672096Y28827314D02*
X-105672096Y28970171D01*
X-105672096Y28970171D02*
X-105719715Y29160647D01*
X-105719715Y29160647D02*
X-105767334Y29255885D01*
X-105767334Y29255885D02*
X-105862572Y29351123D01*
X-105862572Y29351123D02*
X-106005429Y29398743D01*
X-106005429Y29398743D02*
X-106100667Y29398743D01*
X-106100667Y29398743D02*
X-106243524Y29351123D01*
X-106243524Y29351123D02*
X-106291143Y29303504D01*
X-107243524Y28398743D02*
X-106672096Y28398743D01*
X-106957810Y28398743D02*
X-106957810Y29398743D01*
X-106957810Y29398743D02*
X-106862572Y29255885D01*
X-106862572Y29255885D02*
X-106767334Y29160647D01*
X-106767334Y29160647D02*
X-106672096Y29113028D01*
X-108100667Y29398743D02*
X-107910191Y29398743D01*
X-107910191Y29398743D02*
X-107814953Y29351123D01*
X-107814953Y29351123D02*
X-107767334Y29303504D01*
X-107767334Y29303504D02*
X-107672096Y29160647D01*
X-107672096Y29160647D02*
X-107624477Y28970171D01*
X-107624477Y28970171D02*
X-107624477Y28589219D01*
X-107624477Y28589219D02*
X-107672096Y28493981D01*
X-107672096Y28493981D02*
X-107719715Y28446362D01*
X-107719715Y28446362D02*
X-107814953Y28398743D01*
X-107814953Y28398743D02*
X-108005429Y28398743D01*
X-108005429Y28398743D02*
X-108100667Y28446362D01*
X-108100667Y28446362D02*
X-108148286Y28493981D01*
X-108148286Y28493981D02*
X-108195905Y28589219D01*
X-108195905Y28589219D02*
X-108195905Y28827314D01*
X-108195905Y28827314D02*
X-108148286Y28922552D01*
X-108148286Y28922552D02*
X-108100667Y28970171D01*
X-108100667Y28970171D02*
X-108005429Y29017790D01*
X-108005429Y29017790D02*
X-107814953Y29017790D01*
X-107814953Y29017790D02*
X-107719715Y28970171D01*
X-107719715Y28970171D02*
X-107672096Y28922552D01*
X-107672096Y28922552D02*
X-107624477Y28827314D01*
%TO.C,C15*%
X-119615858Y12263981D02*
X-119568239Y12311600D01*
X-119568239Y12311600D02*
X-119520620Y12454457D01*
X-119520620Y12454457D02*
X-119520620Y12549695D01*
X-119520620Y12549695D02*
X-119568239Y12692552D01*
X-119568239Y12692552D02*
X-119663477Y12787790D01*
X-119663477Y12787790D02*
X-119758715Y12835409D01*
X-119758715Y12835409D02*
X-119949191Y12883028D01*
X-119949191Y12883028D02*
X-120092048Y12883028D01*
X-120092048Y12883028D02*
X-120282524Y12835409D01*
X-120282524Y12835409D02*
X-120377762Y12787790D01*
X-120377762Y12787790D02*
X-120473000Y12692552D01*
X-120473000Y12692552D02*
X-120520620Y12549695D01*
X-120520620Y12549695D02*
X-120520620Y12454457D01*
X-120520620Y12454457D02*
X-120473000Y12311600D01*
X-120473000Y12311600D02*
X-120425381Y12263981D01*
X-119520620Y11311600D02*
X-119520620Y11883028D01*
X-119520620Y11597314D02*
X-120520620Y11597314D01*
X-120520620Y11597314D02*
X-120377762Y11692552D01*
X-120377762Y11692552D02*
X-120282524Y11787790D01*
X-120282524Y11787790D02*
X-120234905Y11883028D01*
X-120520620Y10406838D02*
X-120520620Y10883028D01*
X-120520620Y10883028D02*
X-120044429Y10930647D01*
X-120044429Y10930647D02*
X-120092048Y10883028D01*
X-120092048Y10883028D02*
X-120139667Y10787790D01*
X-120139667Y10787790D02*
X-120139667Y10549695D01*
X-120139667Y10549695D02*
X-120092048Y10454457D01*
X-120092048Y10454457D02*
X-120044429Y10406838D01*
X-120044429Y10406838D02*
X-119949191Y10359219D01*
X-119949191Y10359219D02*
X-119711096Y10359219D01*
X-119711096Y10359219D02*
X-119615858Y10406838D01*
X-119615858Y10406838D02*
X-119568239Y10454457D01*
X-119568239Y10454457D02*
X-119520620Y10549695D01*
X-119520620Y10549695D02*
X-119520620Y10787790D01*
X-119520620Y10787790D02*
X-119568239Y10883028D01*
X-119568239Y10883028D02*
X-119615858Y10930647D01*
%TO.C,C14*%
X-119074858Y20137981D02*
X-119027239Y20185600D01*
X-119027239Y20185600D02*
X-118979620Y20328457D01*
X-118979620Y20328457D02*
X-118979620Y20423695D01*
X-118979620Y20423695D02*
X-119027239Y20566552D01*
X-119027239Y20566552D02*
X-119122477Y20661790D01*
X-119122477Y20661790D02*
X-119217715Y20709409D01*
X-119217715Y20709409D02*
X-119408191Y20757028D01*
X-119408191Y20757028D02*
X-119551048Y20757028D01*
X-119551048Y20757028D02*
X-119741524Y20709409D01*
X-119741524Y20709409D02*
X-119836762Y20661790D01*
X-119836762Y20661790D02*
X-119932000Y20566552D01*
X-119932000Y20566552D02*
X-119979620Y20423695D01*
X-119979620Y20423695D02*
X-119979620Y20328457D01*
X-119979620Y20328457D02*
X-119932000Y20185600D01*
X-119932000Y20185600D02*
X-119884381Y20137981D01*
X-118979620Y19185600D02*
X-118979620Y19757028D01*
X-118979620Y19471314D02*
X-119979620Y19471314D01*
X-119979620Y19471314D02*
X-119836762Y19566552D01*
X-119836762Y19566552D02*
X-119741524Y19661790D01*
X-119741524Y19661790D02*
X-119693905Y19757028D01*
X-119646286Y18328457D02*
X-118979620Y18328457D01*
X-120027239Y18566552D02*
X-119312953Y18804647D01*
X-119312953Y18804647D02*
X-119312953Y18185600D01*
%TO.C,C13*%
X-122884858Y37790981D02*
X-122837239Y37838600D01*
X-122837239Y37838600D02*
X-122789620Y37981457D01*
X-122789620Y37981457D02*
X-122789620Y38076695D01*
X-122789620Y38076695D02*
X-122837239Y38219552D01*
X-122837239Y38219552D02*
X-122932477Y38314790D01*
X-122932477Y38314790D02*
X-123027715Y38362409D01*
X-123027715Y38362409D02*
X-123218191Y38410028D01*
X-123218191Y38410028D02*
X-123361048Y38410028D01*
X-123361048Y38410028D02*
X-123551524Y38362409D01*
X-123551524Y38362409D02*
X-123646762Y38314790D01*
X-123646762Y38314790D02*
X-123742000Y38219552D01*
X-123742000Y38219552D02*
X-123789620Y38076695D01*
X-123789620Y38076695D02*
X-123789620Y37981457D01*
X-123789620Y37981457D02*
X-123742000Y37838600D01*
X-123742000Y37838600D02*
X-123694381Y37790981D01*
X-122789620Y36838600D02*
X-122789620Y37410028D01*
X-122789620Y37124314D02*
X-123789620Y37124314D01*
X-123789620Y37124314D02*
X-123646762Y37219552D01*
X-123646762Y37219552D02*
X-123551524Y37314790D01*
X-123551524Y37314790D02*
X-123503905Y37410028D01*
X-123789620Y36505266D02*
X-123789620Y35886219D01*
X-123789620Y35886219D02*
X-123408667Y36219552D01*
X-123408667Y36219552D02*
X-123408667Y36076695D01*
X-123408667Y36076695D02*
X-123361048Y35981457D01*
X-123361048Y35981457D02*
X-123313429Y35933838D01*
X-123313429Y35933838D02*
X-123218191Y35886219D01*
X-123218191Y35886219D02*
X-122980096Y35886219D01*
X-122980096Y35886219D02*
X-122884858Y35933838D01*
X-122884858Y35933838D02*
X-122837239Y35981457D01*
X-122837239Y35981457D02*
X-122789620Y36076695D01*
X-122789620Y36076695D02*
X-122789620Y36362409D01*
X-122789620Y36362409D02*
X-122837239Y36457647D01*
X-122837239Y36457647D02*
X-122884858Y36505266D01*
%TO.C,C12*%
X-126694858Y55570981D02*
X-126647239Y55618600D01*
X-126647239Y55618600D02*
X-126599620Y55761457D01*
X-126599620Y55761457D02*
X-126599620Y55856695D01*
X-126599620Y55856695D02*
X-126647239Y55999552D01*
X-126647239Y55999552D02*
X-126742477Y56094790D01*
X-126742477Y56094790D02*
X-126837715Y56142409D01*
X-126837715Y56142409D02*
X-127028191Y56190028D01*
X-127028191Y56190028D02*
X-127171048Y56190028D01*
X-127171048Y56190028D02*
X-127361524Y56142409D01*
X-127361524Y56142409D02*
X-127456762Y56094790D01*
X-127456762Y56094790D02*
X-127552000Y55999552D01*
X-127552000Y55999552D02*
X-127599620Y55856695D01*
X-127599620Y55856695D02*
X-127599620Y55761457D01*
X-127599620Y55761457D02*
X-127552000Y55618600D01*
X-127552000Y55618600D02*
X-127504381Y55570981D01*
X-126599620Y54618600D02*
X-126599620Y55190028D01*
X-126599620Y54904314D02*
X-127599620Y54904314D01*
X-127599620Y54904314D02*
X-127456762Y54999552D01*
X-127456762Y54999552D02*
X-127361524Y55094790D01*
X-127361524Y55094790D02*
X-127313905Y55190028D01*
X-127504381Y54237647D02*
X-127552000Y54190028D01*
X-127552000Y54190028D02*
X-127599620Y54094790D01*
X-127599620Y54094790D02*
X-127599620Y53856695D01*
X-127599620Y53856695D02*
X-127552000Y53761457D01*
X-127552000Y53761457D02*
X-127504381Y53713838D01*
X-127504381Y53713838D02*
X-127409143Y53666219D01*
X-127409143Y53666219D02*
X-127313905Y53666219D01*
X-127313905Y53666219D02*
X-127171048Y53713838D01*
X-127171048Y53713838D02*
X-126599620Y54285266D01*
X-126599620Y54285266D02*
X-126599620Y53666219D01*
%TO.C,C11*%
X-130504858Y73350981D02*
X-130457239Y73398600D01*
X-130457239Y73398600D02*
X-130409620Y73541457D01*
X-130409620Y73541457D02*
X-130409620Y73636695D01*
X-130409620Y73636695D02*
X-130457239Y73779552D01*
X-130457239Y73779552D02*
X-130552477Y73874790D01*
X-130552477Y73874790D02*
X-130647715Y73922409D01*
X-130647715Y73922409D02*
X-130838191Y73970028D01*
X-130838191Y73970028D02*
X-130981048Y73970028D01*
X-130981048Y73970028D02*
X-131171524Y73922409D01*
X-131171524Y73922409D02*
X-131266762Y73874790D01*
X-131266762Y73874790D02*
X-131362000Y73779552D01*
X-131362000Y73779552D02*
X-131409620Y73636695D01*
X-131409620Y73636695D02*
X-131409620Y73541457D01*
X-131409620Y73541457D02*
X-131362000Y73398600D01*
X-131362000Y73398600D02*
X-131314381Y73350981D01*
X-130409620Y72398600D02*
X-130409620Y72970028D01*
X-130409620Y72684314D02*
X-131409620Y72684314D01*
X-131409620Y72684314D02*
X-131266762Y72779552D01*
X-131266762Y72779552D02*
X-131171524Y72874790D01*
X-131171524Y72874790D02*
X-131123905Y72970028D01*
X-130409620Y71446219D02*
X-130409620Y72017647D01*
X-130409620Y71731933D02*
X-131409620Y71731933D01*
X-131409620Y71731933D02*
X-131266762Y71827171D01*
X-131266762Y71827171D02*
X-131171524Y71922409D01*
X-131171524Y71922409D02*
X-131123905Y72017647D01*
%TO.C,C10*%
X-134314858Y90622981D02*
X-134267239Y90670600D01*
X-134267239Y90670600D02*
X-134219620Y90813457D01*
X-134219620Y90813457D02*
X-134219620Y90908695D01*
X-134219620Y90908695D02*
X-134267239Y91051552D01*
X-134267239Y91051552D02*
X-134362477Y91146790D01*
X-134362477Y91146790D02*
X-134457715Y91194409D01*
X-134457715Y91194409D02*
X-134648191Y91242028D01*
X-134648191Y91242028D02*
X-134791048Y91242028D01*
X-134791048Y91242028D02*
X-134981524Y91194409D01*
X-134981524Y91194409D02*
X-135076762Y91146790D01*
X-135076762Y91146790D02*
X-135172000Y91051552D01*
X-135172000Y91051552D02*
X-135219620Y90908695D01*
X-135219620Y90908695D02*
X-135219620Y90813457D01*
X-135219620Y90813457D02*
X-135172000Y90670600D01*
X-135172000Y90670600D02*
X-135124381Y90622981D01*
X-134219620Y89670600D02*
X-134219620Y90242028D01*
X-134219620Y89956314D02*
X-135219620Y89956314D01*
X-135219620Y89956314D02*
X-135076762Y90051552D01*
X-135076762Y90051552D02*
X-134981524Y90146790D01*
X-134981524Y90146790D02*
X-134933905Y90242028D01*
X-135219620Y89051552D02*
X-135219620Y88956314D01*
X-135219620Y88956314D02*
X-135172000Y88861076D01*
X-135172000Y88861076D02*
X-135124381Y88813457D01*
X-135124381Y88813457D02*
X-135029143Y88765838D01*
X-135029143Y88765838D02*
X-134838667Y88718219D01*
X-134838667Y88718219D02*
X-134600572Y88718219D01*
X-134600572Y88718219D02*
X-134410096Y88765838D01*
X-134410096Y88765838D02*
X-134314858Y88813457D01*
X-134314858Y88813457D02*
X-134267239Y88861076D01*
X-134267239Y88861076D02*
X-134219620Y88956314D01*
X-134219620Y88956314D02*
X-134219620Y89051552D01*
X-134219620Y89051552D02*
X-134267239Y89146790D01*
X-134267239Y89146790D02*
X-134314858Y89194409D01*
X-134314858Y89194409D02*
X-134410096Y89242028D01*
X-134410096Y89242028D02*
X-134600572Y89289647D01*
X-134600572Y89289647D02*
X-134838667Y89289647D01*
X-134838667Y89289647D02*
X-135029143Y89242028D01*
X-135029143Y89242028D02*
X-135124381Y89194409D01*
X-135124381Y89194409D02*
X-135172000Y89146790D01*
X-135172000Y89146790D02*
X-135219620Y89051552D01*
%TO.C,C9*%
X-43470534Y13634981D02*
X-43422915Y13587362D01*
X-43422915Y13587362D02*
X-43280058Y13539743D01*
X-43280058Y13539743D02*
X-43184820Y13539743D01*
X-43184820Y13539743D02*
X-43041963Y13587362D01*
X-43041963Y13587362D02*
X-42946725Y13682600D01*
X-42946725Y13682600D02*
X-42899106Y13777838D01*
X-42899106Y13777838D02*
X-42851487Y13968314D01*
X-42851487Y13968314D02*
X-42851487Y14111171D01*
X-42851487Y14111171D02*
X-42899106Y14301647D01*
X-42899106Y14301647D02*
X-42946725Y14396885D01*
X-42946725Y14396885D02*
X-43041963Y14492123D01*
X-43041963Y14492123D02*
X-43184820Y14539743D01*
X-43184820Y14539743D02*
X-43280058Y14539743D01*
X-43280058Y14539743D02*
X-43422915Y14492123D01*
X-43422915Y14492123D02*
X-43470534Y14444504D01*
X-43946725Y13539743D02*
X-44137201Y13539743D01*
X-44137201Y13539743D02*
X-44232439Y13587362D01*
X-44232439Y13587362D02*
X-44280058Y13634981D01*
X-44280058Y13634981D02*
X-44375296Y13777838D01*
X-44375296Y13777838D02*
X-44422915Y13968314D01*
X-44422915Y13968314D02*
X-44422915Y14349266D01*
X-44422915Y14349266D02*
X-44375296Y14444504D01*
X-44375296Y14444504D02*
X-44327677Y14492123D01*
X-44327677Y14492123D02*
X-44232439Y14539743D01*
X-44232439Y14539743D02*
X-44041963Y14539743D01*
X-44041963Y14539743D02*
X-43946725Y14492123D01*
X-43946725Y14492123D02*
X-43899106Y14444504D01*
X-43899106Y14444504D02*
X-43851487Y14349266D01*
X-43851487Y14349266D02*
X-43851487Y14111171D01*
X-43851487Y14111171D02*
X-43899106Y14015933D01*
X-43899106Y14015933D02*
X-43946725Y13968314D01*
X-43946725Y13968314D02*
X-44041963Y13920695D01*
X-44041963Y13920695D02*
X-44232439Y13920695D01*
X-44232439Y13920695D02*
X-44327677Y13968314D01*
X-44327677Y13968314D02*
X-44375296Y14015933D01*
X-44375296Y14015933D02*
X-44422915Y14111171D01*
%TO.C,C8*%
X-43470534Y11953981D02*
X-43422915Y11906362D01*
X-43422915Y11906362D02*
X-43280058Y11858743D01*
X-43280058Y11858743D02*
X-43184820Y11858743D01*
X-43184820Y11858743D02*
X-43041963Y11906362D01*
X-43041963Y11906362D02*
X-42946725Y12001600D01*
X-42946725Y12001600D02*
X-42899106Y12096838D01*
X-42899106Y12096838D02*
X-42851487Y12287314D01*
X-42851487Y12287314D02*
X-42851487Y12430171D01*
X-42851487Y12430171D02*
X-42899106Y12620647D01*
X-42899106Y12620647D02*
X-42946725Y12715885D01*
X-42946725Y12715885D02*
X-43041963Y12811123D01*
X-43041963Y12811123D02*
X-43184820Y12858743D01*
X-43184820Y12858743D02*
X-43280058Y12858743D01*
X-43280058Y12858743D02*
X-43422915Y12811123D01*
X-43422915Y12811123D02*
X-43470534Y12763504D01*
X-44041963Y12430171D02*
X-43946725Y12477790D01*
X-43946725Y12477790D02*
X-43899106Y12525409D01*
X-43899106Y12525409D02*
X-43851487Y12620647D01*
X-43851487Y12620647D02*
X-43851487Y12668266D01*
X-43851487Y12668266D02*
X-43899106Y12763504D01*
X-43899106Y12763504D02*
X-43946725Y12811123D01*
X-43946725Y12811123D02*
X-44041963Y12858743D01*
X-44041963Y12858743D02*
X-44232439Y12858743D01*
X-44232439Y12858743D02*
X-44327677Y12811123D01*
X-44327677Y12811123D02*
X-44375296Y12763504D01*
X-44375296Y12763504D02*
X-44422915Y12668266D01*
X-44422915Y12668266D02*
X-44422915Y12620647D01*
X-44422915Y12620647D02*
X-44375296Y12525409D01*
X-44375296Y12525409D02*
X-44327677Y12477790D01*
X-44327677Y12477790D02*
X-44232439Y12430171D01*
X-44232439Y12430171D02*
X-44041963Y12430171D01*
X-44041963Y12430171D02*
X-43946725Y12382552D01*
X-43946725Y12382552D02*
X-43899106Y12334933D01*
X-43899106Y12334933D02*
X-43851487Y12239695D01*
X-43851487Y12239695D02*
X-43851487Y12049219D01*
X-43851487Y12049219D02*
X-43899106Y11953981D01*
X-43899106Y11953981D02*
X-43946725Y11906362D01*
X-43946725Y11906362D02*
X-44041963Y11858743D01*
X-44041963Y11858743D02*
X-44232439Y11858743D01*
X-44232439Y11858743D02*
X-44327677Y11906362D01*
X-44327677Y11906362D02*
X-44375296Y11953981D01*
X-44375296Y11953981D02*
X-44422915Y12049219D01*
X-44422915Y12049219D02*
X-44422915Y12239695D01*
X-44422915Y12239695D02*
X-44375296Y12334933D01*
X-44375296Y12334933D02*
X-44327677Y12382552D01*
X-44327677Y12382552D02*
X-44232439Y12430171D01*
%TO.C,C7*%
X-108545334Y14015981D02*
X-108497715Y13968362D01*
X-108497715Y13968362D02*
X-108354858Y13920743D01*
X-108354858Y13920743D02*
X-108259620Y13920743D01*
X-108259620Y13920743D02*
X-108116763Y13968362D01*
X-108116763Y13968362D02*
X-108021525Y14063600D01*
X-108021525Y14063600D02*
X-107973906Y14158838D01*
X-107973906Y14158838D02*
X-107926287Y14349314D01*
X-107926287Y14349314D02*
X-107926287Y14492171D01*
X-107926287Y14492171D02*
X-107973906Y14682647D01*
X-107973906Y14682647D02*
X-108021525Y14777885D01*
X-108021525Y14777885D02*
X-108116763Y14873123D01*
X-108116763Y14873123D02*
X-108259620Y14920743D01*
X-108259620Y14920743D02*
X-108354858Y14920743D01*
X-108354858Y14920743D02*
X-108497715Y14873123D01*
X-108497715Y14873123D02*
X-108545334Y14825504D01*
X-108878668Y14920743D02*
X-109545334Y14920743D01*
X-109545334Y14920743D02*
X-109116763Y13920743D01*
%TO.C,C6*%
X-110704334Y807981D02*
X-110656715Y760362D01*
X-110656715Y760362D02*
X-110513858Y712743D01*
X-110513858Y712743D02*
X-110418620Y712743D01*
X-110418620Y712743D02*
X-110275763Y760362D01*
X-110275763Y760362D02*
X-110180525Y855600D01*
X-110180525Y855600D02*
X-110132906Y950838D01*
X-110132906Y950838D02*
X-110085287Y1141314D01*
X-110085287Y1141314D02*
X-110085287Y1284171D01*
X-110085287Y1284171D02*
X-110132906Y1474647D01*
X-110132906Y1474647D02*
X-110180525Y1569885D01*
X-110180525Y1569885D02*
X-110275763Y1665123D01*
X-110275763Y1665123D02*
X-110418620Y1712743D01*
X-110418620Y1712743D02*
X-110513858Y1712743D01*
X-110513858Y1712743D02*
X-110656715Y1665123D01*
X-110656715Y1665123D02*
X-110704334Y1617504D01*
X-111561477Y1712743D02*
X-111371001Y1712743D01*
X-111371001Y1712743D02*
X-111275763Y1665123D01*
X-111275763Y1665123D02*
X-111228144Y1617504D01*
X-111228144Y1617504D02*
X-111132906Y1474647D01*
X-111132906Y1474647D02*
X-111085287Y1284171D01*
X-111085287Y1284171D02*
X-111085287Y903219D01*
X-111085287Y903219D02*
X-111132906Y807981D01*
X-111132906Y807981D02*
X-111180525Y760362D01*
X-111180525Y760362D02*
X-111275763Y712743D01*
X-111275763Y712743D02*
X-111466239Y712743D01*
X-111466239Y712743D02*
X-111561477Y760362D01*
X-111561477Y760362D02*
X-111609096Y807981D01*
X-111609096Y807981D02*
X-111656715Y903219D01*
X-111656715Y903219D02*
X-111656715Y1141314D01*
X-111656715Y1141314D02*
X-111609096Y1236552D01*
X-111609096Y1236552D02*
X-111561477Y1284171D01*
X-111561477Y1284171D02*
X-111466239Y1331790D01*
X-111466239Y1331790D02*
X-111275763Y1331790D01*
X-111275763Y1331790D02*
X-111180525Y1284171D01*
X-111180525Y1284171D02*
X-111132906Y1236552D01*
X-111132906Y1236552D02*
X-111085287Y1141314D01*
%TO.C,C5*%
X-96882858Y24868790D02*
X-96835239Y24916409D01*
X-96835239Y24916409D02*
X-96787620Y25059266D01*
X-96787620Y25059266D02*
X-96787620Y25154504D01*
X-96787620Y25154504D02*
X-96835239Y25297361D01*
X-96835239Y25297361D02*
X-96930477Y25392599D01*
X-96930477Y25392599D02*
X-97025715Y25440218D01*
X-97025715Y25440218D02*
X-97216191Y25487837D01*
X-97216191Y25487837D02*
X-97359048Y25487837D01*
X-97359048Y25487837D02*
X-97549524Y25440218D01*
X-97549524Y25440218D02*
X-97644762Y25392599D01*
X-97644762Y25392599D02*
X-97740000Y25297361D01*
X-97740000Y25297361D02*
X-97787620Y25154504D01*
X-97787620Y25154504D02*
X-97787620Y25059266D01*
X-97787620Y25059266D02*
X-97740000Y24916409D01*
X-97740000Y24916409D02*
X-97692381Y24868790D01*
X-97787620Y23964028D02*
X-97787620Y24440218D01*
X-97787620Y24440218D02*
X-97311429Y24487837D01*
X-97311429Y24487837D02*
X-97359048Y24440218D01*
X-97359048Y24440218D02*
X-97406667Y24344980D01*
X-97406667Y24344980D02*
X-97406667Y24106885D01*
X-97406667Y24106885D02*
X-97359048Y24011647D01*
X-97359048Y24011647D02*
X-97311429Y23964028D01*
X-97311429Y23964028D02*
X-97216191Y23916409D01*
X-97216191Y23916409D02*
X-96978096Y23916409D01*
X-96978096Y23916409D02*
X-96882858Y23964028D01*
X-96882858Y23964028D02*
X-96835239Y24011647D01*
X-96835239Y24011647D02*
X-96787620Y24106885D01*
X-96787620Y24106885D02*
X-96787620Y24344980D01*
X-96787620Y24344980D02*
X-96835239Y24440218D01*
X-96835239Y24440218D02*
X-96882858Y24487837D01*
%TO.C,C4*%
X-93834858Y25757790D02*
X-93787239Y25805409D01*
X-93787239Y25805409D02*
X-93739620Y25948266D01*
X-93739620Y25948266D02*
X-93739620Y26043504D01*
X-93739620Y26043504D02*
X-93787239Y26186361D01*
X-93787239Y26186361D02*
X-93882477Y26281599D01*
X-93882477Y26281599D02*
X-93977715Y26329218D01*
X-93977715Y26329218D02*
X-94168191Y26376837D01*
X-94168191Y26376837D02*
X-94311048Y26376837D01*
X-94311048Y26376837D02*
X-94501524Y26329218D01*
X-94501524Y26329218D02*
X-94596762Y26281599D01*
X-94596762Y26281599D02*
X-94692000Y26186361D01*
X-94692000Y26186361D02*
X-94739620Y26043504D01*
X-94739620Y26043504D02*
X-94739620Y25948266D01*
X-94739620Y25948266D02*
X-94692000Y25805409D01*
X-94692000Y25805409D02*
X-94644381Y25757790D01*
X-94406286Y24900647D02*
X-93739620Y24900647D01*
X-94787239Y25138742D02*
X-94072953Y25376837D01*
X-94072953Y25376837D02*
X-94072953Y24757790D01*
%TO.C,C3*%
X-95358858Y25757790D02*
X-95311239Y25805409D01*
X-95311239Y25805409D02*
X-95263620Y25948266D01*
X-95263620Y25948266D02*
X-95263620Y26043504D01*
X-95263620Y26043504D02*
X-95311239Y26186361D01*
X-95311239Y26186361D02*
X-95406477Y26281599D01*
X-95406477Y26281599D02*
X-95501715Y26329218D01*
X-95501715Y26329218D02*
X-95692191Y26376837D01*
X-95692191Y26376837D02*
X-95835048Y26376837D01*
X-95835048Y26376837D02*
X-96025524Y26329218D01*
X-96025524Y26329218D02*
X-96120762Y26281599D01*
X-96120762Y26281599D02*
X-96216000Y26186361D01*
X-96216000Y26186361D02*
X-96263620Y26043504D01*
X-96263620Y26043504D02*
X-96263620Y25948266D01*
X-96263620Y25948266D02*
X-96216000Y25805409D01*
X-96216000Y25805409D02*
X-96168381Y25757790D01*
X-96263620Y25424456D02*
X-96263620Y24805409D01*
X-96263620Y24805409D02*
X-95882667Y25138742D01*
X-95882667Y25138742D02*
X-95882667Y24995885D01*
X-95882667Y24995885D02*
X-95835048Y24900647D01*
X-95835048Y24900647D02*
X-95787429Y24853028D01*
X-95787429Y24853028D02*
X-95692191Y24805409D01*
X-95692191Y24805409D02*
X-95454096Y24805409D01*
X-95454096Y24805409D02*
X-95358858Y24853028D01*
X-95358858Y24853028D02*
X-95311239Y24900647D01*
X-95311239Y24900647D02*
X-95263620Y24995885D01*
X-95263620Y24995885D02*
X-95263620Y25281599D01*
X-95263620Y25281599D02*
X-95311239Y25376837D01*
X-95311239Y25376837D02*
X-95358858Y25424456D01*
%TO.C,C2*%
X-110217858Y28424790D02*
X-110170239Y28472409D01*
X-110170239Y28472409D02*
X-110122620Y28615266D01*
X-110122620Y28615266D02*
X-110122620Y28710504D01*
X-110122620Y28710504D02*
X-110170239Y28853361D01*
X-110170239Y28853361D02*
X-110265477Y28948599D01*
X-110265477Y28948599D02*
X-110360715Y28996218D01*
X-110360715Y28996218D02*
X-110551191Y29043837D01*
X-110551191Y29043837D02*
X-110694048Y29043837D01*
X-110694048Y29043837D02*
X-110884524Y28996218D01*
X-110884524Y28996218D02*
X-110979762Y28948599D01*
X-110979762Y28948599D02*
X-111075000Y28853361D01*
X-111075000Y28853361D02*
X-111122620Y28710504D01*
X-111122620Y28710504D02*
X-111122620Y28615266D01*
X-111122620Y28615266D02*
X-111075000Y28472409D01*
X-111075000Y28472409D02*
X-111027381Y28424790D01*
X-111027381Y28043837D02*
X-111075000Y27996218D01*
X-111075000Y27996218D02*
X-111122620Y27900980D01*
X-111122620Y27900980D02*
X-111122620Y27662885D01*
X-111122620Y27662885D02*
X-111075000Y27567647D01*
X-111075000Y27567647D02*
X-111027381Y27520028D01*
X-111027381Y27520028D02*
X-110932143Y27472409D01*
X-110932143Y27472409D02*
X-110836905Y27472409D01*
X-110836905Y27472409D02*
X-110694048Y27520028D01*
X-110694048Y27520028D02*
X-110122620Y28091456D01*
X-110122620Y28091456D02*
X-110122620Y27472409D01*
%TO.C,C1*%
X-110090858Y20931790D02*
X-110043239Y20979409D01*
X-110043239Y20979409D02*
X-109995620Y21122266D01*
X-109995620Y21122266D02*
X-109995620Y21217504D01*
X-109995620Y21217504D02*
X-110043239Y21360361D01*
X-110043239Y21360361D02*
X-110138477Y21455599D01*
X-110138477Y21455599D02*
X-110233715Y21503218D01*
X-110233715Y21503218D02*
X-110424191Y21550837D01*
X-110424191Y21550837D02*
X-110567048Y21550837D01*
X-110567048Y21550837D02*
X-110757524Y21503218D01*
X-110757524Y21503218D02*
X-110852762Y21455599D01*
X-110852762Y21455599D02*
X-110948000Y21360361D01*
X-110948000Y21360361D02*
X-110995620Y21217504D01*
X-110995620Y21217504D02*
X-110995620Y21122266D01*
X-110995620Y21122266D02*
X-110948000Y20979409D01*
X-110948000Y20979409D02*
X-110900381Y20931790D01*
X-109995620Y19979409D02*
X-109995620Y20550837D01*
X-109995620Y20265123D02*
X-110995620Y20265123D01*
X-110995620Y20265123D02*
X-110852762Y20360361D01*
X-110852762Y20360361D02*
X-110757524Y20455599D01*
X-110757524Y20455599D02*
X-110709905Y20550837D01*
D13*
%TO.C,Y1*%
X-116731000Y27186123D02*
X-116731000Y20186123D01*
X-112631000Y27186123D02*
X-112631000Y20186123D01*
%TO.C,SW2*%
X-94727810Y13488751D02*
X-94938840Y12495931D01*
X-92526978Y13020950D02*
X-94727810Y13488751D01*
X-103497632Y14315159D02*
X-103579549Y13929769D01*
X-94938840Y12495931D02*
X-103497632Y14315159D01*
X-93001017Y10790773D02*
X-92526978Y13020950D01*
X-93001017Y10790773D02*
X-89968759Y10146247D01*
X-89968759Y10146247D02*
X-91133065Y4668621D01*
X-94165322Y5313147D02*
X-93001017Y10790773D01*
X-91133065Y4668621D02*
X-94165322Y5313147D01*
X-105187954Y6362819D02*
X-105106037Y6748209D01*
X-96629163Y4543591D02*
X-105187954Y6362819D01*
X-96840193Y3550772D02*
X-96629163Y4543591D01*
X-94639361Y3082970D02*
X-94165322Y5313147D01*
X-94639361Y3082970D02*
X-96840193Y3550772D01*
D14*
X-104233116Y12933677D02*
G75*
G03*
X-104233116Y12933677I-100000J0D01*
G01*
D12*
%TO.C,U2*%
X-107578000Y11702123D02*
X-108228000Y11702123D01*
X-118228000Y5952123D02*
X-117578000Y5952123D01*
X-118228000Y11702123D02*
X-118228000Y5952123D01*
X-117653000Y11702123D02*
X-117653000Y13302123D01*
X-107578000Y5952123D02*
X-108228000Y5952123D01*
X-107578000Y11702123D02*
X-107578000Y5952123D01*
X-118228000Y11702123D02*
X-117653000Y11702123D01*
%TO.C,U1*%
X-107257000Y25787123D02*
X-106932000Y25787123D01*
X-107257000Y18537123D02*
X-107257000Y18762123D01*
X-107257000Y18537123D02*
X-106932000Y18537123D01*
X-100007000Y18537123D02*
X-100332000Y18537123D01*
X-100007000Y18537123D02*
X-100007000Y18862123D01*
X-100007000Y25787123D02*
X-100007000Y25462123D01*
X-100007000Y25787123D02*
X-100332000Y25787123D01*
X-107257000Y25787123D02*
X-107257000Y25462123D01*
X-107257000Y18762123D02*
X-108682000Y18762123D01*
D15*
%TO.C,SW1*%
X-93163000Y47617123D02*
X-99623000Y47617123D01*
X-93163000Y41157123D02*
X-93163000Y41187123D01*
X-93163000Y45687123D02*
X-93163000Y43087123D01*
X-99623000Y47617123D02*
X-99623000Y47587123D01*
X-93163000Y41157123D02*
X-99623000Y41157123D01*
X-93163000Y47587123D02*
X-93163000Y47617123D01*
X-99623000Y41157123D02*
X-99623000Y41187123D01*
X-99623000Y45687123D02*
X-99623000Y43087123D01*
%TO.C,R9*%
X-129779500Y90154381D02*
X-129779500Y89679865D01*
X-130824500Y90154381D02*
X-130824500Y89679865D01*
%TO.C,R8*%
X-49038742Y12778623D02*
X-49513258Y12778623D01*
X-49038742Y11733623D02*
X-49513258Y11733623D01*
%TO.C,R7*%
X-51121542Y3533023D02*
X-51596058Y3533023D01*
X-51121542Y2488023D02*
X-51596058Y2488023D01*
%TO.C,R6*%
X-114738658Y3406023D02*
X-114264142Y3406023D01*
X-114738658Y2361023D02*
X-114264142Y2361023D01*
%TO.C,R5*%
X-114738658Y1888223D02*
X-114264142Y1888223D01*
X-114738658Y843223D02*
X-114264142Y843223D01*
%TO.C,R4*%
X-96536742Y26973623D02*
X-97011258Y26973623D01*
X-96536742Y28018623D02*
X-97011258Y28018623D01*
%TO.C,R3*%
X-112411742Y16559623D02*
X-112886258Y16559623D01*
X-112411742Y17604623D02*
X-112886258Y17604623D01*
%TO.C,R2*%
X-112411742Y15035623D02*
X-112886258Y15035623D01*
X-112411742Y16080623D02*
X-112886258Y16080623D01*
%TO.C,R1*%
X-103646500Y40974865D02*
X-103646500Y41449381D01*
X-102601500Y40974865D02*
X-102601500Y41449381D01*
%TO.C,J3*%
X-56130000Y5102123D02*
X-55330000Y5102123D01*
X-47590000Y5102123D02*
X-47590000Y6002123D01*
X-56130000Y9142123D02*
X-56130000Y8242123D01*
X-47590000Y9142123D02*
X-47590000Y8242123D01*
X-56130000Y5102123D02*
X-56130000Y6002123D01*
X-56280000Y4952123D02*
X-55780000Y4952123D01*
X-47590000Y9142123D02*
X-48390000Y9142123D01*
X-47590000Y5102123D02*
X-48390000Y5102123D01*
X-56280000Y4952123D02*
X-56280000Y5452123D01*
X-56130000Y9142123D02*
X-55330000Y9142123D01*
%TO.C,J2*%
X-100089000Y31184123D02*
X-100089000Y31119123D01*
X-100089000Y35049123D02*
X-100089000Y34984123D01*
X-103619000Y31184123D02*
X-103619000Y31119123D01*
X-103619000Y35049123D02*
X-103619000Y34984123D01*
X-98764000Y34984123D02*
X-100089000Y34984123D01*
X-100089000Y35049123D02*
X-103619000Y35049123D01*
X-100089000Y31119123D02*
X-103619000Y31119123D01*
%TO.C,FB1*%
X-93724000Y18895902D02*
X-93724000Y18570344D01*
X-94744000Y18895902D02*
X-94744000Y18570344D01*
%TO.C,F1*%
X-103345064Y4530123D02*
X-102140936Y4530123D01*
X-103345064Y2710123D02*
X-102140936Y2710123D01*
%TO.C,D3*%
X-119087000Y3720123D02*
X-116802000Y3720123D01*
X-119087000Y2250123D02*
X-119087000Y3720123D01*
X-116802000Y2250123D02*
X-119087000Y2250123D01*
%TO.C,D2*%
X-119087000Y2094523D02*
X-116802000Y2094523D01*
X-119087000Y624523D02*
X-119087000Y2094523D01*
X-116802000Y624523D02*
X-119087000Y624523D01*
%TO.C,D1*%
X-98259000Y29882123D02*
X-95974000Y29882123D01*
X-98259000Y28412123D02*
X-98259000Y29882123D01*
X-95974000Y28412123D02*
X-98259000Y28412123D01*
%TO.C,C32*%
X-17274000Y89839543D02*
X-17274000Y90120703D01*
X-16254000Y89839543D02*
X-16254000Y90120703D01*
%TO.C,C31*%
X-21211000Y72694543D02*
X-21211000Y72975703D01*
X-20191000Y72694543D02*
X-20191000Y72975703D01*
%TO.C,C30*%
X-24513000Y54914543D02*
X-24513000Y55195703D01*
X-23493000Y54914543D02*
X-23493000Y55195703D01*
%TO.C,C29*%
X-28323000Y36880543D02*
X-28323000Y37161703D01*
X-27303000Y36880543D02*
X-27303000Y37161703D01*
%TO.C,C28*%
X-32133000Y19227543D02*
X-32133000Y19508703D01*
X-31113000Y19227543D02*
X-31113000Y19508703D01*
%TO.C,C27*%
X-42039000Y7162543D02*
X-42039000Y7443703D01*
X-41019000Y7162543D02*
X-41019000Y7443703D01*
%TO.C,C26*%
X-51056000Y19227543D02*
X-51056000Y19508703D01*
X-50036000Y19227543D02*
X-50036000Y19508703D01*
%TO.C,C25*%
X-55501000Y37007543D02*
X-55501000Y37288703D01*
X-54481000Y37007543D02*
X-54481000Y37288703D01*
%TO.C,C24*%
X-58676000Y51358543D02*
X-58676000Y51639703D01*
X-57656000Y51358543D02*
X-57656000Y51639703D01*
%TO.C,C23*%
X-61216000Y66852543D02*
X-61216000Y67133703D01*
X-60196000Y66852543D02*
X-60196000Y67133703D01*
%TO.C,C22*%
X-67439000Y79552543D02*
X-67439000Y79833703D01*
X-66419000Y79552543D02*
X-66419000Y79833703D01*
%TO.C,C21*%
X-77091000Y89839543D02*
X-77091000Y90120703D01*
X-76071000Y89839543D02*
X-76071000Y90120703D01*
%TO.C,C20*%
X-87378000Y79806543D02*
X-87378000Y80087703D01*
X-86358000Y79806543D02*
X-86358000Y80087703D01*
%TO.C,C19*%
X-92204000Y67106543D02*
X-92204000Y67387703D01*
X-91184000Y67106543D02*
X-91184000Y67387703D01*
%TO.C,C18*%
X-94998000Y51358543D02*
X-94998000Y51639703D01*
X-93978000Y51358543D02*
X-93978000Y51639703D01*
%TO.C,C17*%
X-98046000Y37134543D02*
X-98046000Y37415703D01*
X-97026000Y37134543D02*
X-97026000Y37415703D01*
%TO.C,C16*%
X-103872420Y28129123D02*
X-104153580Y28129123D01*
X-103872420Y29149123D02*
X-104153580Y29149123D01*
%TO.C,C15*%
X-120398000Y8559543D02*
X-120398000Y8840703D01*
X-119378000Y8559543D02*
X-119378000Y8840703D01*
%TO.C,C14*%
X-121287000Y19354543D02*
X-121287000Y19635703D01*
X-120267000Y19354543D02*
X-120267000Y19635703D01*
%TO.C,C13*%
X-125097000Y37007543D02*
X-125097000Y37288703D01*
X-124077000Y37007543D02*
X-124077000Y37288703D01*
%TO.C,C12*%
X-128907000Y54787543D02*
X-128907000Y55068703D01*
X-127887000Y54787543D02*
X-127887000Y55068703D01*
%TO.C,C11*%
X-131697000Y72567543D02*
X-131697000Y72848703D01*
X-132717000Y72567543D02*
X-132717000Y72848703D01*
%TO.C,C10*%
X-135507000Y89839543D02*
X-135507000Y90120703D01*
X-136527000Y89839543D02*
X-136527000Y90120703D01*
%TO.C,C9*%
X-46190780Y13270123D02*
X-45909620Y13270123D01*
X-46190780Y14290123D02*
X-45909620Y14290123D01*
%TO.C,C8*%
X-46190780Y11746123D02*
X-45909620Y11746123D01*
X-46190780Y12766123D02*
X-45909620Y12766123D01*
%TO.C,C7*%
X-106031420Y13905123D02*
X-106312580Y13905123D01*
X-106031420Y14925123D02*
X-106312580Y14925123D01*
%TO.C,C6*%
X-110730420Y2094123D02*
X-111011580Y2094123D01*
X-110730420Y3114123D02*
X-111011580Y3114123D01*
%TO.C,C5*%
X-96772000Y22429703D02*
X-96772000Y22148543D01*
X-97792000Y22429703D02*
X-97792000Y22148543D01*
%TO.C,C4*%
X-93724000Y23318703D02*
X-93724000Y23037543D01*
X-94744000Y23318703D02*
X-94744000Y23037543D01*
%TO.C,C3*%
X-95248000Y23318703D02*
X-95248000Y23037543D01*
X-96268000Y23318703D02*
X-96268000Y23037543D01*
%TO.C,C2*%
X-109980000Y26239703D02*
X-109980000Y25958543D01*
X-111000000Y26239703D02*
X-111000000Y25958543D01*
%TO.C,C1*%
X-111000000Y22910543D02*
X-111000000Y23191703D01*
X-109980000Y22910543D02*
X-109980000Y23191703D01*
%TD*%
M02*
