%TF.GenerationSoftware,KiCad,Pcbnew,(7.0.0)*%
%TF.CreationDate,2023-11-18T20:53:13-06:00*%
%TF.ProjectId,LightLetter_W,4c696768-744c-4657-9474-65725f572e6b,rev?*%
%TF.SameCoordinates,PXda408f0PY8b5864b*%
%TF.FileFunction,Soldermask,Top*%
%TF.FilePolarity,Negative*%
%FSLAX46Y46*%
G04 Gerber Fmt 4.6, Leading zero omitted, Abs format (unit mm)*
G04 Created by KiCad (PCBNEW (7.0.0)) date 2023-11-18 20:53:13*
%MOMM*%
%LPD*%
G01*
G04 APERTURE LIST*
G04 Aperture macros list*
%AMRoundRect*
0 Rectangle with rounded corners*
0 $1 Rounding radius*
0 $2 $3 $4 $5 $6 $7 $8 $9 X,Y pos of 4 corners*
0 Add a 4 corners polygon primitive as box body*
4,1,4,$2,$3,$4,$5,$6,$7,$8,$9,$2,$3,0*
0 Add four circle primitives for the rounded corners*
1,1,$1+$1,$2,$3*
1,1,$1+$1,$4,$5*
1,1,$1+$1,$6,$7*
1,1,$1+$1,$8,$9*
0 Add four rect primitives between the rounded corners*
20,1,$1+$1,$2,$3,$4,$5,0*
20,1,$1+$1,$4,$5,$6,$7,0*
20,1,$1+$1,$6,$7,$8,$9,0*
20,1,$1+$1,$8,$9,$2,$3,0*%
G04 Aperture macros list end*
%ADD10RoundRect,0.102000X-0.629668X0.969603X-0.969603X-0.629668X0.629668X-0.969603X0.969603X0.629668X0*%
%ADD11C,1.839000*%
%ADD12C,3.200000*%
%ADD13C,1.100000*%
%ADD14O,1.000000X0.580000*%
%ADD15C,0.660000*%
%ADD16R,1.500000X0.900000*%
G04 APERTURE END LIST*
D10*
%TO.C,SW2*%
X-102865894Y12621809D03*
D11*
X-103393990Y10137314D03*
X-103922086Y7652819D03*
X-97896904Y11565618D03*
X-98953096Y6596628D03*
%TD*%
D12*
%TO.C,H2*%
X-124079000Y4255123D03*
%TD*%
%TO.C,H1*%
X-28194000Y4255123D03*
%TD*%
D13*
%TO.C,J3*%
X-49460000Y9272123D03*
X-54260000Y9272123D03*
X-54260000Y4972123D03*
X-49460000Y4972123D03*
D14*
X-48109999Y7122122D03*
D15*
X-55610000Y7122123D03*
%TD*%
D16*
%TO.C,D26*%
X-19213999Y91630122D03*
X-19213999Y88330122D03*
X-14313999Y88330122D03*
X-14313999Y91630122D03*
%TD*%
%TO.C,D25*%
X-23150999Y74358122D03*
X-23150999Y71058122D03*
X-18250999Y71058122D03*
X-18250999Y74358122D03*
%TD*%
%TO.C,D24*%
X-26325999Y56578122D03*
X-26325999Y53278122D03*
X-21425999Y53278122D03*
X-21425999Y56578122D03*
%TD*%
%TO.C,D23*%
X-30135999Y38798122D03*
X-30135999Y35498122D03*
X-25235999Y35498122D03*
X-25235999Y38798122D03*
%TD*%
%TO.C,D22*%
X-33945999Y21018122D03*
X-33945999Y17718122D03*
X-29045999Y17718122D03*
X-29045999Y21018122D03*
%TD*%
%TO.C,D21*%
X-43978999Y8953122D03*
X-43978999Y5653122D03*
X-39078999Y5653122D03*
X-39078999Y8953122D03*
%TD*%
%TO.C,D20*%
X-52995999Y21018122D03*
X-52995999Y17718122D03*
X-48095999Y17718122D03*
X-48095999Y21018122D03*
%TD*%
%TO.C,D19*%
X-57403999Y38799122D03*
X-57403999Y35499122D03*
X-52503999Y35499122D03*
X-52503999Y38799122D03*
%TD*%
%TO.C,D18*%
X-60615999Y53149122D03*
X-60615999Y49849122D03*
X-55715999Y49849122D03*
X-55715999Y53149122D03*
%TD*%
%TO.C,D17*%
X-63155999Y68643122D03*
X-63155999Y65343122D03*
X-58255999Y65343122D03*
X-58255999Y68643122D03*
%TD*%
%TO.C,D16*%
X-69378999Y81343122D03*
X-69378999Y78043122D03*
X-64478999Y78043122D03*
X-64478999Y81343122D03*
%TD*%
%TO.C,D15*%
X-78903999Y91630122D03*
X-78903999Y88330122D03*
X-74003999Y88330122D03*
X-74003999Y91630122D03*
%TD*%
%TO.C,D14*%
X-89063999Y81343122D03*
X-89063999Y78043122D03*
X-84163999Y78043122D03*
X-84163999Y81343122D03*
%TD*%
%TO.C,D13*%
X-94016999Y68643122D03*
X-94016999Y65343122D03*
X-89116999Y65343122D03*
X-89116999Y68643122D03*
%TD*%
%TO.C,D12*%
X-96810999Y53149122D03*
X-96810999Y49849122D03*
X-91910999Y49849122D03*
X-91910999Y53149122D03*
%TD*%
%TO.C,D11*%
X-99985999Y38798122D03*
X-99985999Y35498122D03*
X-95085999Y35498122D03*
X-95085999Y38798122D03*
%TD*%
%TO.C,D10*%
X-104430999Y21018122D03*
X-104430999Y17718122D03*
X-99530999Y17718122D03*
X-99530999Y21018122D03*
%TD*%
%TO.C,D9*%
X-113828999Y8953122D03*
X-113828999Y5653122D03*
X-108928999Y5653122D03*
X-108928999Y8953122D03*
%TD*%
%TO.C,D8*%
X-123226999Y21018122D03*
X-123226999Y17718122D03*
X-118326999Y17718122D03*
X-118326999Y21018122D03*
%TD*%
%TO.C,D7*%
X-127036999Y38798122D03*
X-127036999Y35498122D03*
X-122136999Y35498122D03*
X-122136999Y38798122D03*
%TD*%
%TO.C,D6*%
X-130846999Y56578122D03*
X-130846999Y53278122D03*
X-125946999Y53278122D03*
X-125946999Y56578122D03*
%TD*%
%TO.C,D5*%
X-134656999Y74358122D03*
X-134656999Y71058122D03*
X-129756999Y71058122D03*
X-129756999Y74358122D03*
%TD*%
%TO.C,D4*%
X-138466999Y91630122D03*
X-138466999Y88330122D03*
X-133566999Y88330122D03*
X-133566999Y91630122D03*
%TD*%
M02*
