M48
; DRILL file {KiCad (7.0.0)} date Sat Nov 18 20:53:27 2023
; FORMAT={-:-/ absolute / metric / decimal}
; #@! TF.CreationDate,2023-11-18T20:53:27-06:00
; #@! TF.GenerationSoftware,Kicad,Pcbnew,(7.0.0)
; #@! TF.FileFunction,MixedPlating,1,2
FMAT,2
METRIC
; #@! TA.AperFunction,Plated,PTH,ViaDrill
T1C0.356
; #@! TA.AperFunction,Plated,PTH,ComponentDrill
T2C0.700
; #@! TA.AperFunction,Plated,PTH,ComponentDrill
T3C1.090
; #@! TA.AperFunction,NonPlated,NPTH,ComponentDrill
T4C0.580
; #@! TA.AperFunction,NonPlated,NPTH,ComponentDrill
T5C0.660
; #@! TA.AperFunction,NonPlated,NPTH,ComponentDrill
T6C3.200
%
G90
G05
T1
X-136.144Y91.631
X-136.042Y87.643
X-133.604Y89.853
X-132.207Y74.359
X-132.207Y71.057
X-128.397Y56.579
X-128.397Y53.15
X-124.587Y38.926
X-124.587Y35.37
X-120.777Y21.273
X-120.777Y17.717
X-116.332Y8.954
X-109.982Y6.872
X-107.696Y26.48
X-106.451Y31.052
X-106.172Y19.622
X-104.775Y30.036
X-103.327Y30.341
X-102.21Y36.031
X-101.981Y19.622
X-101.981Y8.065
X-101.978Y7.176
X-101.978Y6.16
X-101.978Y5.144
X-100.838Y19.368
X-100.584Y8.065
X-100.581Y7.176
X-100.581Y6.16
X-100.581Y5.144
X-99.949Y37.275
X-99.568Y30.29
X-96.647Y51.626
X-96.266Y14.288
X-96.012Y15.304
X-95.631Y16.32
X-95.377Y17.336
X-95.123Y36.894
X-93.98Y67.12
X-91.948Y51.372
X-89.154Y66.866
X-89.027Y79.82
X-84.201Y79.693
X-78.867Y90.107
X-74.041Y89.98
X-69.215Y79.566
X-64.262Y79.515
X-63.119Y67.12
X-60.579Y51.626
X-58.141Y66.79
X-57.277Y37.021
X-55.753Y51.372
X-53.137Y11.189
X-53.101Y4.966
X-53.061Y9.31
X-52.959Y19.495
X-52.451Y37.021
X-51.273Y1.597
X-50.622Y4.941
X-50.343Y10.018
X-48.133Y19.241
X-43.942Y7.303
X-39.116Y7.303
X-33.909Y19.495
X-30.099Y37.148
X-28.956Y19.114
X-26.289Y55.055
X-25.273Y36.894
X-23.114Y72.962
X-21.463Y54.801
X-19.177Y90.107
X-18.288Y72.581
X-14.351Y89.853
T2
X-54.26Y9.272
X-54.26Y4.972
X-49.46Y9.272
X-49.46Y4.972
T3
X-103.922Y7.653
X-103.394Y10.137
X-102.866Y12.622
X-98.953Y6.597
X-97.897Y11.566
T5
X-55.61Y7.122
T6
X-124.079Y4.255
X-28.194Y4.255
T4
G00X-48.32Y7.122
M15
G01X-47.9Y7.122
M16
G05
T0
M30
