%TF.GenerationSoftware,KiCad,Pcbnew,(7.0.0)*%
%TF.CreationDate,2023-11-18T20:53:13-06:00*%
%TF.ProjectId,LightLetter_W,4c696768-744c-4657-9474-65725f572e6b,rev?*%
%TF.SameCoordinates,PXda408f0PY8b5864b*%
%TF.FileFunction,Legend,Top*%
%TF.FilePolarity,Positive*%
%FSLAX46Y46*%
G04 Gerber Fmt 4.6, Leading zero omitted, Abs format (unit mm)*
G04 Created by KiCad (PCBNEW (7.0.0)) date 2023-11-18 20:53:13*
%MOMM*%
%LPD*%
G01*
G04 APERTURE LIST*
%ADD10C,0.150000*%
%ADD11C,0.120000*%
G04 APERTURE END LIST*
D10*
%TO.C,D26*%
X-18891286Y90095343D02*
X-19462714Y90095343D01*
X-19177000Y90095343D02*
X-19177000Y91095343D01*
X-19177000Y91095343D02*
X-19272238Y90952485D01*
X-19272238Y90952485D02*
X-19367476Y90857247D01*
X-19367476Y90857247D02*
X-19462714Y90809628D01*
%TO.C,D25*%
X-22828286Y72823343D02*
X-23399714Y72823343D01*
X-23114000Y72823343D02*
X-23114000Y73823343D01*
X-23114000Y73823343D02*
X-23209238Y73680485D01*
X-23209238Y73680485D02*
X-23304476Y73585247D01*
X-23304476Y73585247D02*
X-23399714Y73537628D01*
%TO.C,D24*%
X-26003286Y55043343D02*
X-26574714Y55043343D01*
X-26289000Y55043343D02*
X-26289000Y56043343D01*
X-26289000Y56043343D02*
X-26384238Y55900485D01*
X-26384238Y55900485D02*
X-26479476Y55805247D01*
X-26479476Y55805247D02*
X-26574714Y55757628D01*
%TO.C,D23*%
X-29813286Y37263343D02*
X-30384714Y37263343D01*
X-30099000Y37263343D02*
X-30099000Y38263343D01*
X-30099000Y38263343D02*
X-30194238Y38120485D01*
X-30194238Y38120485D02*
X-30289476Y38025247D01*
X-30289476Y38025247D02*
X-30384714Y37977628D01*
%TO.C,D22*%
X-33623286Y19483343D02*
X-34194714Y19483343D01*
X-33909000Y19483343D02*
X-33909000Y20483343D01*
X-33909000Y20483343D02*
X-34004238Y20340485D01*
X-34004238Y20340485D02*
X-34099476Y20245247D01*
X-34099476Y20245247D02*
X-34194714Y20197628D01*
%TO.C,D21*%
X-43656286Y7316743D02*
X-44227714Y7316743D01*
X-43942000Y7316743D02*
X-43942000Y8316743D01*
X-43942000Y8316743D02*
X-44037238Y8173885D01*
X-44037238Y8173885D02*
X-44132476Y8078647D01*
X-44132476Y8078647D02*
X-44227714Y8031028D01*
%TO.C,D20*%
X-52673286Y19381743D02*
X-53244714Y19381743D01*
X-52959000Y19381743D02*
X-52959000Y20381743D01*
X-52959000Y20381743D02*
X-53054238Y20238885D01*
X-53054238Y20238885D02*
X-53149476Y20143647D01*
X-53149476Y20143647D02*
X-53244714Y20096028D01*
%TO.C,D19*%
X-57081286Y37162743D02*
X-57652714Y37162743D01*
X-57367000Y37162743D02*
X-57367000Y38162743D01*
X-57367000Y38162743D02*
X-57462238Y38019885D01*
X-57462238Y38019885D02*
X-57557476Y37924647D01*
X-57557476Y37924647D02*
X-57652714Y37877028D01*
%TO.C,D18*%
X-60293286Y51512743D02*
X-60864714Y51512743D01*
X-60579000Y51512743D02*
X-60579000Y52512743D01*
X-60579000Y52512743D02*
X-60674238Y52369885D01*
X-60674238Y52369885D02*
X-60769476Y52274647D01*
X-60769476Y52274647D02*
X-60864714Y52227028D01*
%TO.C,D17*%
X-62833286Y67006743D02*
X-63404714Y67006743D01*
X-63119000Y67006743D02*
X-63119000Y68006743D01*
X-63119000Y68006743D02*
X-63214238Y67863885D01*
X-63214238Y67863885D02*
X-63309476Y67768647D01*
X-63309476Y67768647D02*
X-63404714Y67721028D01*
%TO.C,D16*%
X-69056286Y79706743D02*
X-69627714Y79706743D01*
X-69342000Y79706743D02*
X-69342000Y80706743D01*
X-69342000Y80706743D02*
X-69437238Y80563885D01*
X-69437238Y80563885D02*
X-69532476Y80468647D01*
X-69532476Y80468647D02*
X-69627714Y80421028D01*
%TO.C,D15*%
X-78606686Y90019143D02*
X-79178114Y90019143D01*
X-78892400Y90019143D02*
X-78892400Y91019143D01*
X-78892400Y91019143D02*
X-78987638Y90876285D01*
X-78987638Y90876285D02*
X-79082876Y90781047D01*
X-79082876Y90781047D02*
X-79178114Y90733428D01*
%TO.C,D14*%
X-88766686Y79732143D02*
X-89338114Y79732143D01*
X-89052400Y79732143D02*
X-89052400Y80732143D01*
X-89052400Y80732143D02*
X-89147638Y80589285D01*
X-89147638Y80589285D02*
X-89242876Y80494047D01*
X-89242876Y80494047D02*
X-89338114Y80446428D01*
%TO.C,D13*%
X-93719686Y67032143D02*
X-94291114Y67032143D01*
X-94005400Y67032143D02*
X-94005400Y68032143D01*
X-94005400Y68032143D02*
X-94100638Y67889285D01*
X-94100638Y67889285D02*
X-94195876Y67794047D01*
X-94195876Y67794047D02*
X-94291114Y67746428D01*
%TO.C,D12*%
X-96513686Y51538143D02*
X-97085114Y51538143D01*
X-96799400Y51538143D02*
X-96799400Y52538143D01*
X-96799400Y52538143D02*
X-96894638Y52395285D01*
X-96894638Y52395285D02*
X-96989876Y52300047D01*
X-96989876Y52300047D02*
X-97085114Y52252428D01*
%TO.C,D11*%
X-99688686Y37187143D02*
X-100260114Y37187143D01*
X-99974400Y37187143D02*
X-99974400Y38187143D01*
X-99974400Y38187143D02*
X-100069638Y38044285D01*
X-100069638Y38044285D02*
X-100164876Y37949047D01*
X-100164876Y37949047D02*
X-100260114Y37901428D01*
%TO.C,D10*%
X-104133686Y19407143D02*
X-104705114Y19407143D01*
X-104419400Y19407143D02*
X-104419400Y20407143D01*
X-104419400Y20407143D02*
X-104514638Y20264285D01*
X-104514638Y20264285D02*
X-104609876Y20169047D01*
X-104609876Y20169047D02*
X-104705114Y20121428D01*
%TO.C,D9*%
X-113531686Y7342143D02*
X-114103114Y7342143D01*
X-113817400Y7342143D02*
X-113817400Y8342143D01*
X-113817400Y8342143D02*
X-113912638Y8199285D01*
X-113912638Y8199285D02*
X-114007876Y8104047D01*
X-114007876Y8104047D02*
X-114103114Y8056428D01*
%TO.C,D8*%
X-122929686Y19407143D02*
X-123501114Y19407143D01*
X-123215400Y19407143D02*
X-123215400Y20407143D01*
X-123215400Y20407143D02*
X-123310638Y20264285D01*
X-123310638Y20264285D02*
X-123405876Y20169047D01*
X-123405876Y20169047D02*
X-123501114Y20121428D01*
%TO.C,D7*%
X-126739686Y37187143D02*
X-127311114Y37187143D01*
X-127025400Y37187143D02*
X-127025400Y38187143D01*
X-127025400Y38187143D02*
X-127120638Y38044285D01*
X-127120638Y38044285D02*
X-127215876Y37949047D01*
X-127215876Y37949047D02*
X-127311114Y37901428D01*
%TO.C,D6*%
X-130549686Y54967143D02*
X-131121114Y54967143D01*
X-130835400Y54967143D02*
X-130835400Y55967143D01*
X-130835400Y55967143D02*
X-130930638Y55824285D01*
X-130930638Y55824285D02*
X-131025876Y55729047D01*
X-131025876Y55729047D02*
X-131121114Y55681428D01*
%TO.C,D5*%
X-134308886Y72645543D02*
X-134880314Y72645543D01*
X-134594600Y72645543D02*
X-134594600Y73645543D01*
X-134594600Y73645543D02*
X-134689838Y73502685D01*
X-134689838Y73502685D02*
X-134785076Y73407447D01*
X-134785076Y73407447D02*
X-134880314Y73359828D01*
%TO.C,D4*%
X-138118886Y90019143D02*
X-138690314Y90019143D01*
X-138404600Y90019143D02*
X-138404600Y91019143D01*
X-138404600Y91019143D02*
X-138499838Y90876285D01*
X-138499838Y90876285D02*
X-138595076Y90781047D01*
X-138595076Y90781047D02*
X-138690314Y90733428D01*
D11*
%TO.C,D26*%
X-20414000Y92730123D02*
X-13114000Y92730123D01*
X-20414000Y87230123D02*
X-13114000Y87230123D01*
X-13114000Y87230123D02*
X-13114000Y88380123D01*
%TO.C,D25*%
X-24351000Y75458123D02*
X-17051000Y75458123D01*
X-24351000Y69958123D02*
X-17051000Y69958123D01*
X-17051000Y69958123D02*
X-17051000Y71108123D01*
%TO.C,D24*%
X-27526000Y57678123D02*
X-20226000Y57678123D01*
X-27526000Y52178123D02*
X-20226000Y52178123D01*
X-20226000Y52178123D02*
X-20226000Y53328123D01*
%TO.C,D23*%
X-31336000Y39898123D02*
X-24036000Y39898123D01*
X-31336000Y34398123D02*
X-24036000Y34398123D01*
X-24036000Y34398123D02*
X-24036000Y35548123D01*
%TO.C,D22*%
X-35146000Y22118123D02*
X-27846000Y22118123D01*
X-35146000Y16618123D02*
X-27846000Y16618123D01*
X-27846000Y16618123D02*
X-27846000Y17768123D01*
%TO.C,D21*%
X-45179000Y10053123D02*
X-37879000Y10053123D01*
X-45179000Y4553123D02*
X-37879000Y4553123D01*
X-37879000Y4553123D02*
X-37879000Y5703123D01*
%TO.C,D20*%
X-54196000Y22118123D02*
X-46896000Y22118123D01*
X-54196000Y16618123D02*
X-46896000Y16618123D01*
X-46896000Y16618123D02*
X-46896000Y17768123D01*
%TO.C,D19*%
X-58604000Y39899123D02*
X-51304000Y39899123D01*
X-58604000Y34399123D02*
X-51304000Y34399123D01*
X-51304000Y34399123D02*
X-51304000Y35549123D01*
%TO.C,D18*%
X-61816000Y54249123D02*
X-54516000Y54249123D01*
X-61816000Y48749123D02*
X-54516000Y48749123D01*
X-54516000Y48749123D02*
X-54516000Y49899123D01*
%TO.C,D17*%
X-64356000Y69743123D02*
X-57056000Y69743123D01*
X-64356000Y64243123D02*
X-57056000Y64243123D01*
X-57056000Y64243123D02*
X-57056000Y65393123D01*
%TO.C,D16*%
X-70579000Y82443123D02*
X-63279000Y82443123D01*
X-70579000Y76943123D02*
X-63279000Y76943123D01*
X-63279000Y76943123D02*
X-63279000Y78093123D01*
%TO.C,D15*%
X-80104000Y92730123D02*
X-72804000Y92730123D01*
X-80104000Y87230123D02*
X-72804000Y87230123D01*
X-72804000Y87230123D02*
X-72804000Y88380123D01*
%TO.C,D14*%
X-90264000Y82443123D02*
X-82964000Y82443123D01*
X-90264000Y76943123D02*
X-82964000Y76943123D01*
X-82964000Y76943123D02*
X-82964000Y78093123D01*
%TO.C,D13*%
X-95217000Y69743123D02*
X-87917000Y69743123D01*
X-95217000Y64243123D02*
X-87917000Y64243123D01*
X-87917000Y64243123D02*
X-87917000Y65393123D01*
%TO.C,D12*%
X-98011000Y54249123D02*
X-90711000Y54249123D01*
X-98011000Y48749123D02*
X-90711000Y48749123D01*
X-90711000Y48749123D02*
X-90711000Y49899123D01*
%TO.C,D11*%
X-101186000Y39898123D02*
X-93886000Y39898123D01*
X-101186000Y34398123D02*
X-93886000Y34398123D01*
X-93886000Y34398123D02*
X-93886000Y35548123D01*
%TO.C,D10*%
X-105631000Y22118123D02*
X-98331000Y22118123D01*
X-105631000Y16618123D02*
X-98331000Y16618123D01*
X-98331000Y16618123D02*
X-98331000Y17768123D01*
%TO.C,D9*%
X-115029000Y10053123D02*
X-107729000Y10053123D01*
X-115029000Y4553123D02*
X-107729000Y4553123D01*
X-107729000Y4553123D02*
X-107729000Y5703123D01*
%TO.C,D8*%
X-124427000Y22118123D02*
X-117127000Y22118123D01*
X-124427000Y16618123D02*
X-117127000Y16618123D01*
X-117127000Y16618123D02*
X-117127000Y17768123D01*
%TO.C,D7*%
X-128237000Y39898123D02*
X-120937000Y39898123D01*
X-128237000Y34398123D02*
X-120937000Y34398123D01*
X-120937000Y34398123D02*
X-120937000Y35548123D01*
%TO.C,D6*%
X-132047000Y57678123D02*
X-124747000Y57678123D01*
X-132047000Y52178123D02*
X-124747000Y52178123D01*
X-124747000Y52178123D02*
X-124747000Y53328123D01*
%TO.C,D5*%
X-135857000Y75458123D02*
X-128557000Y75458123D01*
X-135857000Y69958123D02*
X-128557000Y69958123D01*
X-128557000Y69958123D02*
X-128557000Y71108123D01*
%TO.C,D4*%
X-139667000Y92730123D02*
X-132367000Y92730123D01*
X-139667000Y87230123D02*
X-132367000Y87230123D01*
X-132367000Y87230123D02*
X-132367000Y88380123D01*
%TD*%
M02*
